<svg width="1168" height="757" viewBox="0 0 1168 757" fill="none" xmlns="http://www.w3.org/2000/svg">
<g id="undraw_about_me_wa29 1" clip-path="url(#clip0)">
<path id="Vector" opacity="0.1" d="M560.76 756.03C859.546 756.03 1101.76 742.151 1101.76 725.03C1101.76 707.909 859.546 694.03 560.76 694.03C261.974 694.03 19.76 707.909 19.76 725.03C19.76 742.151 261.974 756.03 560.76 756.03Z" fill="#6C63FF"/>
<g id="Group" opacity="0.2">
<path id="Vector_2" opacity="0.2" d="M1007.26 726.419C1006.76 727.359 1006.19 728.253 1005.53 729.089C999.77 725.029 993.913 721.053 987.96 717.159C988.08 716.909 988.21 716.649 988.35 716.399C989.732 713.729 991.804 711.478 994.35 709.879C997.64 707.879 1001.35 707.399 1004.35 709.019C1007.35 710.639 1009.11 713.959 1009.29 717.799C1009.39 720.802 1008.69 723.779 1007.26 726.419V726.419Z" fill="#3F3D56"/>
<path id="Vector_3" opacity="0.2" d="M1015.31 711.361C1018.93 704.524 1017.64 696.738 1012.41 693.972C1007.19 691.206 1000.02 694.507 996.4 701.344C992.779 708.182 994.076 715.967 999.298 718.733C1004.52 721.499 1011.69 718.199 1015.31 711.361Z" fill="#3F3D56"/>
<path id="Vector_4" opacity="0.2" d="M1023.32 696.226C1026.94 689.389 1025.65 681.604 1020.42 678.838C1015.2 676.071 1008.03 679.372 1004.41 686.209C1000.79 693.047 1002.09 700.832 1007.31 703.598C1012.53 706.364 1019.7 703.064 1023.32 696.226Z" fill="#3F3D56"/>
<path id="Vector_5" opacity="0.2" d="M1031.35 681.087C1034.97 674.249 1033.67 666.464 1028.45 663.698C1023.23 660.932 1016.06 664.232 1012.43 671.07C1008.81 677.907 1010.11 685.693 1015.33 688.459C1020.55 691.225 1027.72 687.924 1031.35 681.087Z" fill="#3F3D56"/>
<path id="Vector_6" opacity="0.2" d="M1039.36 665.943C1042.98 659.106 1041.69 651.32 1036.46 648.554C1031.24 645.788 1024.07 649.089 1020.45 655.926C1016.83 662.764 1018.13 670.549 1023.35 673.315C1028.57 676.081 1035.74 672.781 1039.36 665.943Z" fill="#3F3D56"/>
<path id="Vector_7" opacity="0.2" d="M1049.31 538.52C1048.89 536.207 1048.63 533.868 1048.53 531.52L1075.53 540.6L1048.53 526.6C1048.92 519.602 1050.74 512.759 1053.88 506.491C1057.01 500.222 1061.4 494.661 1066.76 490.15L1092.87 528.01L1072.56 485.94C1078.53 482.212 1085.2 479.752 1092.16 478.714C1099.12 477.675 1106.22 478.08 1113.01 479.903C1119.81 481.726 1126.16 484.928 1131.66 489.31C1137.17 493.692 1141.71 499.16 1145.01 505.373C1148.31 511.587 1150.3 518.414 1150.85 525.429C1151.4 532.444 1150.5 539.496 1148.21 546.148C1145.91 552.8 1142.27 558.909 1137.52 564.094C1132.76 569.28 1126.99 573.431 1120.56 576.29C1121.22 579.917 1121.49 583.605 1121.36 587.29L1080.21 586.97L1120.73 593.64C1119.36 602.059 1115.92 610.004 1110.71 616.757C1105.5 623.511 1098.69 628.859 1090.89 632.32C1092.61 641.789 1091.63 651.551 1088.06 660.49C1084.5 669.429 1078.48 677.183 1070.72 682.866C1062.95 688.55 1053.74 691.933 1044.14 692.629C1034.54 693.324 1024.94 691.305 1016.44 686.801C1007.93 682.297 1000.87 675.49 996.047 667.159C991.228 658.829 988.85 649.31 989.187 639.691C989.523 630.073 992.559 620.743 997.948 612.769C1003.34 604.795 1010.86 598.499 1019.66 594.6C1017.62 583.291 1019.43 571.624 1024.81 561.469C1030.19 551.314 1038.83 543.261 1049.33 538.6L1049.31 538.52Z" fill="#6C63FF"/>
<path id="Vector_8" opacity="0.1" d="M1115.4 609.399C1110.04 619.574 1101.39 627.637 1090.87 632.279C1092.59 641.749 1091.61 651.511 1088.04 660.45C1084.48 669.388 1078.46 677.143 1070.7 682.826C1062.93 688.51 1053.72 691.893 1044.12 692.588C1034.52 693.284 1024.92 691.265 1016.42 686.761C1007.91 682.257 1000.85 675.45 996.027 667.119C991.208 658.788 988.83 649.269 989.167 639.651C989.503 630.033 992.539 620.703 997.928 612.729C1003.32 604.755 1010.84 598.459 1019.64 594.559C1017.65 583.629 1118.1 604.319 1115.4 609.399Z" fill="black"/>
</g>
<g id="Group_2" opacity="0.2">
<path id="Vector_9" opacity="0.2" d="M975.13 423.95C974.508 425.555 973.755 427.107 972.88 428.59C962.807 423.217 952.603 417.997 942.27 412.93C942.41 412.5 942.57 412.05 942.74 411.62C944.416 407.062 947.282 403.036 951.04 399.96C955.91 396.06 961.78 394.59 967.04 396.58C972.3 398.57 975.66 403.58 976.71 409.69C977.469 414.499 976.923 419.424 975.13 423.95V423.95Z" fill="#3F3D56"/>
<path id="Vector_10" opacity="0.2" d="M985.014 398.067C989.472 386.356 985.835 374.102 976.89 370.697C967.945 367.292 957.08 374.025 952.622 385.737C948.163 397.448 951.801 409.703 960.746 413.108C969.69 416.513 980.556 409.779 985.014 398.067Z" fill="#3F3D56"/>
<path id="Vector_11" opacity="0.2" d="M994.887 372.154C999.345 360.443 995.708 348.188 986.763 344.783C977.818 341.378 966.952 348.112 962.494 359.824C958.036 371.535 961.673 383.79 970.618 387.195C979.563 390.6 990.429 383.866 994.887 372.154Z" fill="#3F3D56"/>
<path id="Vector_12" opacity="0.2" d="M1004.74 346.23C1009.2 334.518 1005.56 322.264 996.62 318.859C987.675 315.454 976.81 322.187 972.351 333.899C967.893 345.61 971.531 357.865 980.476 361.27C989.42 364.675 1000.29 357.941 1004.74 346.23Z" fill="#3F3D56"/>
<path id="Vector_13" opacity="0.2" d="M1014.62 320.326C1019.07 308.615 1015.44 296.36 1006.49 292.955C997.548 289.55 986.682 296.284 982.224 307.996C977.766 319.707 981.403 331.961 990.348 335.366C999.293 338.771 1010.16 332.038 1014.62 320.326Z" fill="#3F3D56"/>
<path id="Vector_14" opacity="0.2" d="M1005.25 113.7C1004.11 110.039 1003.23 106.303 1002.6 102.52L1047.82 111.73L1001.66 94.55C1000.9 83.2687 1002.46 71.9515 1006.22 61.2909C1009.99 50.6303 1015.89 40.8505 1023.57 32.55L1073.13 88.01L1032.13 24.48C1040.98 17.3339 1051.2 12.0825 1062.16 9.0518C1073.13 6.0211 1084.59 5.27574 1095.86 6.86198C1107.12 8.44821 1117.93 12.3322 1127.63 18.2729C1137.33 24.2136 1145.71 32.0842 1152.24 41.3962C1158.77 50.7083 1163.31 61.2631 1165.59 72.4056C1167.87 83.548 1167.84 95.0404 1165.5 106.169C1163.15 117.298 1158.54 127.826 1151.96 137.1C1145.37 146.374 1136.95 154.196 1127.22 160.08C1129 165.776 1130.16 171.646 1130.68 177.59L1064.51 185.27L1130.94 187.92C1130.42 201.721 1126.47 215.174 1119.44 227.063C1112.41 238.952 1102.53 248.901 1090.69 256.01C1095.33 270.876 1095.69 286.746 1091.73 301.808C1087.78 316.869 1079.66 330.514 1068.32 341.183C1056.98 351.852 1042.86 359.115 1027.59 362.142C1012.31 365.169 996.493 363.837 981.939 358.299C967.384 352.761 954.682 343.241 945.282 330.825C935.882 318.41 930.164 303.601 928.783 288.09C927.401 272.579 930.41 256.993 937.467 243.111C944.524 229.23 955.344 217.613 968.69 209.59C963.137 191.821 963.719 172.701 970.343 155.303C976.966 137.904 989.246 123.238 1005.21 113.66L1005.25 113.7Z" fill="#6C63FF"/>
<path id="Vector_15" opacity="0.1" d="M1125.55 214.4C1118.95 231.802 1106.67 246.464 1090.69 256.01C1095.33 270.876 1095.69 286.747 1091.73 301.808C1087.78 316.87 1079.66 330.515 1068.32 341.184C1056.98 351.853 1042.86 359.116 1027.59 362.142C1012.31 365.169 996.493 363.837 981.939 358.299C967.384 352.762 954.682 343.241 945.282 330.826C935.882 318.41 930.164 303.601 928.783 288.09C927.401 272.58 930.41 256.993 937.467 243.111C944.524 229.23 955.344 217.614 968.69 209.59C963.36 192.47 1128.87 205.7 1125.55 214.4Z" fill="black"/>
</g>
<g id="Group_3" opacity="0.2">
<path id="Vector_16" opacity="0.2" d="M153.275 491.063C153.781 493.048 154.45 494.988 155.275 496.863C167.942 492.009 180.752 487.343 193.705 482.863C193.595 482.333 193.485 481.783 193.345 481.243C192.04 475.613 189.254 470.434 185.275 466.243C180.095 460.923 173.385 458.323 166.935 459.903C160.485 461.483 155.735 466.903 153.585 473.903C151.945 479.491 151.838 485.418 153.275 491.063V491.063Z" fill="#3F3D56"/>
<path id="Vector_17" opacity="0.2" d="M171.926 480.32C182.984 477.621 189.083 463.697 185.549 449.222C182.015 434.746 170.186 425.2 159.128 427.9C148.07 430.6 141.971 444.523 145.505 458.998C149.039 473.474 160.868 483.02 171.926 480.32Z" fill="#3F3D56"/>
<path id="Vector_18" opacity="0.2" d="M164.103 448.299C175.16 445.599 181.26 431.676 177.725 417.2C174.191 402.725 162.362 393.179 151.305 395.878C140.247 398.578 134.148 412.501 137.682 426.977C141.216 441.452 153.045 450.998 164.103 448.299Z" fill="#3F3D56"/>
<path id="Vector_19" opacity="0.2" d="M156.289 416.266C167.346 413.566 173.446 399.643 169.912 385.167C166.377 370.692 154.548 361.145 143.491 363.845C132.433 366.545 126.334 380.468 129.868 394.944C133.402 409.419 145.231 418.965 156.289 416.266Z" fill="#3F3D56"/>
<path id="Vector_20" opacity="0.2" d="M148.463 384.224C159.52 381.525 165.62 367.602 162.085 353.126C158.551 338.651 146.722 329.104 135.665 331.804C124.607 334.504 118.508 348.427 122.042 362.903C125.576 377.378 137.405 386.924 148.463 384.224Z" fill="#3F3D56"/>
<path id="Vector_21" opacity="0.2" d="M163.475 120.532C165.365 116.382 166.962 112.105 168.255 107.732L113.545 111.912L170.545 98.4525C173.109 85.2463 172.95 71.6556 170.077 58.5132C167.203 45.3708 161.677 32.9536 153.835 22.0225L87.155 80.2625L144.925 11.3425C135.544 1.57322 124.252 -6.16108 111.754 -11.3793C99.255 -16.5975 85.8161 -19.1879 72.2733 -18.9894C58.7305 -18.7909 45.3734 -15.8078 33.0329 -10.2255C20.6925 -4.64331 9.63273 3.41858 0.541727 13.4586C-8.54928 23.4986 -15.477 35.3019 -19.8106 48.1342C-24.1441 60.9665 -25.7907 74.5533 -24.648 88.0493C-23.5052 101.545 -19.5975 114.662 -13.168 126.583C-6.7385 138.504 2.07528 148.974 12.725 157.342C9.78763 163.805 7.55153 170.563 6.05502 177.502L83.005 196.312L4.22502 189.642C2.80516 206 5.48384 222.453 12.019 237.516C18.5541 252.578 28.7396 265.775 41.655 275.912C33.9845 292.773 31.2129 311.452 33.6571 329.813C36.1013 348.175 43.6627 365.478 55.4768 379.745C67.2909 394.012 82.881 404.666 100.465 410.491C118.049 416.316 136.916 417.075 154.912 412.683C172.907 408.29 189.303 398.923 202.225 385.652C215.148 372.381 224.075 355.741 227.987 337.635C231.9 319.53 230.638 300.689 224.348 283.266C218.057 265.844 206.991 250.543 192.415 239.112C201.58 218.958 203.703 196.308 198.444 174.802C193.184 153.296 180.847 134.182 163.415 120.532H163.475Z" fill="#6C63FF"/>
<path id="Vector_22" opacity="0.1" d="M6.65507 221.623C11.8724 243.146 24.2054 262.276 41.6551 275.913C33.9846 292.773 31.213 311.452 33.6572 329.813C36.1014 348.175 43.6628 365.478 55.4768 379.745C67.2909 394.012 82.881 404.667 100.465 410.491C118.049 416.316 136.917 417.075 154.912 412.683C172.907 408.29 189.303 398.923 202.225 385.652C215.148 372.381 224.075 355.741 227.988 337.636C231.9 319.53 230.638 300.689 224.348 283.267C218.057 265.844 206.991 250.543 192.415 239.113C201.295 219.663 4.04507 210.913 6.65507 221.623Z" fill="black"/>
</g>
<path id="Vector_23" d="M1056.3 113.71H87.56C86.4245 113.711 85.3004 113.936 84.252 114.372C83.2036 114.808 82.2514 115.447 81.4499 116.251C80.6484 117.055 80.0133 118.01 79.5809 119.06C79.1485 120.11 78.9273 121.235 78.93 122.37V715.25C78.926 717.539 79.373 719.806 80.2452 721.922C81.1175 724.039 82.3981 725.962 84.0139 727.584C85.6296 729.205 87.5489 730.492 89.6621 731.372C91.7753 732.251 94.041 732.706 96.33 732.71H1047.53C1049.82 732.706 1052.08 732.251 1054.2 731.372C1056.31 730.492 1058.23 729.205 1059.85 727.584C1061.46 725.962 1062.74 724.039 1063.61 721.922C1064.49 719.806 1064.93 717.539 1064.93 715.25V122.37C1064.93 120.078 1064.03 117.878 1062.41 116.254C1060.79 114.63 1058.59 113.715 1056.3 113.71V113.71Z" fill="url(#paint0_linear)"/>
<path id="Vector_24" d="M1061.01 150.52V711.76C1061.01 716.334 1059.19 720.72 1055.95 723.954C1052.72 727.189 1048.33 729.007 1043.76 729.01H100.27C95.6924 729.01 91.3022 727.191 88.0653 723.954C84.8285 720.717 83.01 716.327 83.01 711.75V150.52H1061.01Z" fill="white"/>
<path id="Vector_25" d="M1061.01 125.58V150.52H83.01V125.58C83.01 123.309 83.9119 121.132 85.5172 119.527C87.1225 117.921 89.2998 117.02 91.57 117.02H1052.45C1054.72 117.02 1056.9 117.921 1058.5 119.527C1060.11 121.132 1061.01 123.309 1061.01 125.58V125.58Z" fill="#EDEDF4"/>
<path id="Vector_26" opacity="0.8" d="M98.51 137.52C100.719 137.52 102.51 135.729 102.51 133.52C102.51 131.31 100.719 129.52 98.51 129.52C96.3009 129.52 94.51 131.31 94.51 133.52C94.51 135.729 96.3009 137.52 98.51 137.52Z" fill="#FA5959"/>
<path id="Vector_27" opacity="0.8" d="M109.51 137.52C111.719 137.52 113.51 135.729 113.51 133.52C113.51 131.31 111.719 129.52 109.51 129.52C107.301 129.52 105.51 131.31 105.51 133.52C105.51 135.729 107.301 137.52 109.51 137.52Z" fill="#FED253"/>
<path id="Vector_28" opacity="0.8" d="M120.51 137.52C122.719 137.52 124.51 135.729 124.51 133.52C124.51 131.31 122.719 129.52 120.51 129.52C118.301 129.52 116.51 131.31 116.51 133.52C116.51 135.729 118.301 137.52 120.51 137.52Z" fill="#8CCF4D"/>
<path id="Vector_29" d="M628.93 102.72V98.7197H622.93V102.72H628.93Z" fill="url(#paint1_linear)"/>
<path id="Vector_30" d="M401.93 199.71H307.93V209.71H401.93V199.71Z" fill="#F531B3" fill-opacity="0.2"/>
<path id="Vector_31" d="M835.93 228.71H307.93V238.71H835.93V228.71Z" fill="#F531B3" fill-opacity="0.2"/>
<path id="Vector_32" d="M835.93 257.71H307.93V267.71H835.93V257.71Z" fill="#F531B3" fill-opacity="0.2"/>
<path id="Vector_33" d="M835.93 286.71H307.93V296.71H835.93V286.71Z" fill="#F531B3" fill-opacity="0.2"/>
<path id="Vector_34" d="M835.93 315.71H307.93V325.71H835.93V315.71Z" fill="#F531B3" fill-opacity="0.2"/>
<path id="Vector_35" d="M734.76 371.03H408.76V623.03H734.76V371.03Z" fill="#C165DD" fill-opacity="0.5"/>
<path id="Vector_36" d="M628.96 449.1C628.54 449.1 628.12 449.16 627.69 449.17C627.832 448.588 627.879 447.987 627.83 447.39C627.707 444.868 627.024 442.405 625.83 440.18C625.095 438.869 624.266 437.612 623.35 436.42C620.63 432.66 618.11 428.82 615.12 425.27C613.823 423.891 612.754 422.315 611.95 420.6C611.648 419.675 611.287 418.77 610.87 417.89C610.292 416.992 609.478 416.269 608.516 415.802C607.555 415.334 606.484 415.14 605.42 415.24C603.281 415.492 601.312 416.534 599.9 418.16C599.06 419.06 598.37 420.45 599.07 421.47C599.77 422.49 601.29 422.62 601.38 423.74C601.38 424.34 601.38 425.32 600.77 425.51C599.687 425.797 598.655 426.249 597.71 426.85C597.243 427.16 596.854 427.574 596.574 428.06C596.295 428.546 596.133 429.091 596.1 429.65C597.83 429.91 599.28 428.46 600.85 427.65C602.843 426.801 605.08 426.719 607.13 427.42C607.918 427.63 608.653 428.001 609.29 428.51C609.851 429.061 610.323 429.695 610.69 430.39C612.616 433.175 613.806 436.402 614.15 439.77L615.03 445.39C613.728 445.494 612.433 445.668 611.15 445.91C607.696 446.42 604.173 446.181 600.82 445.21C597.32 444.21 593.82 442.39 590.21 443.21C588.52 443.58 586.98 444.52 585.27 444.79C583.934 444.919 582.586 444.848 581.27 444.58L578.52 444.14C578.43 443.91 578.36 443.67 578.29 443.43C577.721 441.425 577.458 439.345 577.51 437.26C579.303 437.164 581.045 436.63 582.585 435.706C584.124 434.781 585.414 433.494 586.341 431.956C587.268 430.418 587.805 428.677 587.904 426.884C588.003 425.091 587.662 423.301 586.91 421.67C588.393 420.839 589.62 419.618 590.46 418.14L589.76 418.01L590.42 417.01C590.265 416.915 590.133 416.786 590.036 416.632C589.939 416.478 589.879 416.304 589.861 416.122C589.843 415.941 589.866 415.759 589.93 415.588C589.994 415.418 590.097 415.264 590.23 415.14C589.647 414.838 588.996 414.693 588.34 414.72C588.55 414.33 588.21 413.85 587.8 413.72C587.372 413.633 586.935 413.607 586.5 413.64C585.862 413.591 585.235 413.446 584.64 413.21C580.37 411.74 575.74 410.45 571.39 411.68C569.473 412.279 567.68 413.221 566.1 414.46C564.56 415.325 563.409 416.747 562.885 418.434C562.36 420.121 562.502 421.945 563.28 423.53C563.94 425.169 564.413 426.876 564.69 428.62C564.751 430.249 564.566 431.877 564.14 433.45C565.092 433.74 566.065 433.958 567.05 434.1C566.494 436.248 565.512 438.261 564.16 440.02C563.541 440.799 562.873 441.537 562.16 442.23H562.04C560.057 442.601 558.053 442.848 556.04 442.97C553.92 442.97 551.84 442.17 549.73 442.32C548.48 442.461 547.249 442.74 546.06 443.15C540.571 444.759 534.869 445.521 529.15 445.41L528.46 445.48L529.1 441.4C529.444 438.032 530.634 434.805 532.56 432.02C532.927 431.325 533.399 430.691 533.96 430.14C534.6 429.631 535.339 429.26 536.13 429.05C538.176 428.348 540.411 428.43 542.4 429.28C543.97 430.05 545.4 431.5 547.16 431.28C547.124 430.72 546.959 430.176 546.678 429.69C546.397 429.205 546.008 428.791 545.54 428.48C544.595 427.879 543.563 427.427 542.48 427.14C541.9 426.95 541.82 425.97 541.87 425.37C541.96 424.25 543.55 424.01 544.18 423.09C544.81 422.17 544.18 420.69 543.35 419.78C541.936 418.158 539.968 417.121 537.83 416.87C536.767 416.77 535.697 416.964 534.738 417.431C533.778 417.899 532.966 418.622 532.39 419.52C531.965 420.398 531.601 421.303 531.3 422.23C530.496 423.945 529.427 425.521 528.13 426.9C525.13 430.45 522.62 434.29 519.9 438.05C518.99 439.243 518.161 440.496 517.42 441.8C516.232 444.031 515.549 446.496 515.42 449.02C515.371 449.621 515.418 450.225 515.56 450.81C515.493 450.951 515.456 451.104 515.45 451.26C515.481 451.534 515.566 451.798 515.7 452.038C515.834 452.279 516.014 452.49 516.23 452.66C517.76 454.2 519.37 455.79 521.43 456.45C522.712 456.754 524.011 456.977 525.32 457.12C528.48 457.69 531.39 459.52 534.6 459.51C536.81 459.51 538.99 458.63 541.17 458.94C544.17 459.35 546.33 461.79 548.17 464.16C549.733 466.01 550.906 468.156 551.62 470.47C552.33 473.26 551.89 476.4 553.38 478.86C553.756 479.363 554.046 479.924 554.24 480.52C554.271 481.464 554.061 482.4 553.63 483.24C552.37 487.11 555.13 491.24 554.84 495.24C554.7 497.19 553.84 499.03 553.75 500.98C553.6 503.49 554.62 506.3 553.22 508.39C554.07 507.95 554.93 507.56 555.81 507.21C551.61 519.52 547.81 532.21 548.1 545.15C548.32 553.54 550.1 562.78 545.28 569.67C544.595 570.492 544.051 571.421 543.67 572.42C543.29 573.77 543.67 575.2 543.92 576.58C544.81 582.58 541.57 588.49 541.35 594.58C541.325 596.457 541.445 598.332 541.71 600.19L542.89 610.33C541.701 610.589 540.595 611.139 539.67 611.93C538.43 612.93 537.34 614.57 537.92 616.07C538.39 617.28 539.77 617.86 541.04 618.16C542.342 618.306 543.587 618.778 544.66 619.53C545.003 619.91 545.367 620.271 545.75 620.61C546.489 621.011 547.336 621.168 548.17 621.06C549.7 621 551.17 620.87 552.73 620.66C553.054 620.647 553.368 620.547 553.64 620.37C553.823 620.168 553.962 619.931 554.05 619.673C554.138 619.415 554.172 619.142 554.15 618.87C554.262 617.348 554.198 615.818 553.96 614.31C553.9 614.02 553.82 613.74 553.74 613.45C554.265 612.165 554.638 610.822 554.85 609.45C555.16 607.45 555.21 605.36 555.34 603.31C555.64 598.09 556.34 592.91 557.14 587.73L558.14 581.07C558.45 578.88 558.77 576.69 559.14 574.5C560.994 562.639 563.878 550.961 567.76 539.6C568.61 537.17 570.06 534.32 572.63 534.25L574.16 537.25C576.16 541.01 577.38 545.18 578.9 549.13C580.9 554.32 580.22 560.38 582.9 565.26C583.34 566.07 583.9 566.84 584.23 567.69C584.704 568.999 584.98 570.37 585.05 571.76L586.82 589.76C587.62 597.85 588.48 606.16 592.11 613.43C592.338 613.899 592.606 614.347 592.91 614.77C592.798 615.981 592.781 617.198 592.86 618.41C592.804 618.625 592.799 618.849 592.845 619.066C592.89 619.283 592.986 619.486 593.124 619.66C593.261 619.833 593.437 619.972 593.638 620.066C593.839 620.16 594.059 620.206 594.28 620.2C595.79 620.4 597.28 620.53 598.83 620.59C599.664 620.698 600.511 620.541 601.25 620.14C601.641 619.806 602.009 619.445 602.35 619.06C603.419 618.308 604.661 617.836 605.96 617.69C607.23 617.4 608.61 616.82 609.08 615.6C609.67 614.1 608.57 612.47 607.33 611.46C606.325 610.582 605.09 610.01 603.77 609.81C603.227 609.842 602.681 609.798 602.15 609.68C602.274 609.021 602.314 608.349 602.27 607.68C602.142 606.894 602.108 606.095 602.17 605.3C602.374 604.498 602.649 603.715 602.99 602.96C604.14 599.42 601.69 595.82 600.83 592.2C599.68 587.38 601.39 582.33 601.08 577.38C600.6 569.61 595.18 562.32 596.62 554.67C597.77 548.55 596.79 542.26 595.7 536.13L591.7 513.32C591.419 511.469 590.932 509.654 590.25 507.91C590.992 507.782 591.722 507.588 592.43 507.33C593.43 504.89 593.26 502.2 592.96 499.58C592.66 496.96 591.96 494.4 591.61 491.8C591.307 489.71 591.133 487.602 591.09 485.49C590.981 483.407 591.129 481.318 591.53 479.27C591.99 477.473 592.616 475.722 593.4 474.04C595.335 469.185 597.677 464.502 600.4 460.04C604.51 459.72 608.49 459.37 612.59 459.04C613.573 458.995 614.55 458.865 615.51 458.65C616.734 458.229 617.979 457.871 619.24 457.58C619.71 457.556 620.175 457.465 620.62 457.31C621.52 456.9 622.07 455.75 623.06 455.71C623.432 455.76 623.808 455.76 624.18 455.71C624.62 455.57 624.84 455.09 625.18 454.71C625.8 454.02 626.81 453.88 627.62 453.43C628.315 452.979 628.829 452.299 629.074 451.508C629.319 450.717 629.278 449.865 628.96 449.1V449.1Z" fill="url(#paint2_linear)"/>
<path id="Vector_37" d="M576.94 438.16C583.015 438.16 587.94 433.235 587.94 427.16C587.94 421.085 583.015 416.16 576.94 416.16C570.865 416.16 565.94 421.085 565.94 427.16C565.94 433.235 570.865 438.16 576.94 438.16Z" fill="#A1616A"/>
<path id="Vector_38" d="M564.24 440.85C563.116 442.232 561.86 443.502 560.49 444.64C566.952 448.493 574.633 449.758 581.99 448.18C581.72 447.43 580.74 447.32 580.05 446.94C579.154 446.304 578.543 445.342 578.35 444.26C577.609 441.625 577.391 438.869 577.71 436.15C577.845 435.49 577.845 434.81 577.71 434.15C577.326 433.16 576.588 432.348 575.64 431.87C574.082 430.899 572.4 430.142 570.64 429.62C568.82 429.08 567.78 428.83 567.71 430.95C567.636 434.535 566.421 438.004 564.24 440.85V440.85Z" fill="#A1616A"/>
<path id="Vector_39" d="M615.28 447.77L614.16 440.67C613.979 439.241 613.681 437.83 613.27 436.45C612.599 434.658 611.741 432.942 610.71 431.33C610.343 430.638 609.871 430.007 609.31 429.46C608.673 428.951 607.938 428.58 607.15 428.37C605.106 427.671 602.875 427.757 600.89 428.61C599.32 429.37 597.89 430.81 596.14 430.56C596.173 430.001 596.337 429.457 596.618 428.972C596.899 428.488 597.29 428.076 597.76 427.77C598.684 427.17 599.696 426.718 600.76 426.43C601.33 426.25 601.42 425.27 601.37 424.67C601.28 423.56 599.69 423.32 599.06 422.41C598.43 421.5 599.06 420.02 599.88 419.11C601.292 417.494 603.257 416.463 605.39 416.22C606.451 416.114 607.521 416.303 608.481 416.768C609.441 417.232 610.254 417.953 610.83 418.85C611.255 419.724 611.619 420.626 611.92 421.55C612.723 423.256 613.79 424.825 615.08 426.2C618.08 429.73 620.59 433.55 623.3 437.29C624.207 438.482 625.035 439.731 625.78 441.03C626.972 443.245 627.656 445.698 627.78 448.21C627.869 448.983 627.756 449.765 627.45 450.48C627.14 451.001 626.701 451.433 626.176 451.734C625.65 452.035 625.056 452.196 624.45 452.2C623.221 452.17 622.006 451.926 620.86 451.48L616.5 450.01C615.969 449.893 615.483 449.625 615.1 449.24C614.942 449.017 614.872 448.742 614.906 448.47C614.939 448.198 615.072 447.949 615.28 447.77V447.77Z" fill="#A1616A"/>
<path id="Vector_40" d="M528.13 449.34L529.24 442.24C529.429 440.812 529.73 439.401 530.14 438.02C530.807 436.226 531.665 434.51 532.7 432.9C533.058 432.208 533.527 431.579 534.09 431.04C534.723 430.525 535.46 430.153 536.25 429.95C538.296 429.248 540.531 429.33 542.52 430.18C544.09 430.94 545.52 432.38 547.27 432.13C547.236 431.571 547.071 431.028 546.79 430.543C546.509 430.059 546.118 429.647 545.65 429.34C544.725 428.741 543.713 428.289 542.65 428C542.08 427.82 541.99 426.84 542.04 426.24C542.13 425.13 543.71 424.89 544.35 423.98C544.99 423.07 544.35 421.59 543.52 420.69C542.11 419.069 540.144 418.034 538.01 417.79C536.949 417.685 535.88 417.875 534.92 418.339C533.96 418.803 533.147 419.523 532.57 420.42C532.148 421.294 531.788 422.196 531.49 423.12C530.684 424.824 529.618 426.393 528.33 427.77C525.33 431.3 522.82 435.12 520.1 438.86C519.195 440.051 518.37 441.3 517.63 442.6C516.443 444.817 515.76 447.268 515.63 449.78C515.545 450.556 515.662 451.342 515.97 452.06C516.286 452.585 516.734 453.019 517.268 453.319C517.803 453.619 518.407 453.774 519.02 453.77C520.247 453.744 521.459 453.5 522.6 453.05L526.97 451.62C527.499 451.504 527.982 451.237 528.36 450.85C528.525 450.617 528.593 450.33 528.55 450.048C528.507 449.767 528.356 449.513 528.13 449.34Z" fill="#A1616A"/>
<path id="Vector_41" d="M607.33 611.42C608.57 612.42 609.66 614.05 609.08 615.54C608.6 616.75 607.23 617.32 605.96 617.62C604.663 617.767 603.422 618.234 602.35 618.98C602.011 619.347 601.646 619.692 601.26 620.01C600.522 620.415 599.674 620.573 598.84 620.46C597.32 620.4 595.84 620.27 594.29 620.07C593.966 620.056 593.652 619.956 593.38 619.78C593.197 619.58 593.058 619.345 592.971 619.088C592.885 618.831 592.854 618.559 592.88 618.29C592.759 616.775 592.82 615.25 593.06 613.75C593.312 612.242 594.088 610.872 595.25 609.88C596.41 608.98 599.93 606.31 601.25 608.02C601.6 608.48 601.46 609.11 601.95 609.49C602.44 609.87 603.21 609.66 603.77 609.73C605.094 609.94 606.33 610.527 607.33 611.42Z" fill="#3F3D56"/>
<path id="Vector_42" d="M539.76 611.94C538.52 612.94 537.43 614.57 538.01 616.06C538.48 617.27 539.85 617.85 541.12 618.14C542.418 618.286 543.659 618.753 544.73 619.5C545.071 619.885 545.439 620.246 545.83 620.58C546.566 620.979 547.409 621.136 548.24 621.03C549.76 620.97 551.24 620.84 552.79 620.63C553.114 620.618 553.429 620.518 553.7 620.34C553.885 620.142 554.026 619.906 554.114 619.65C554.202 619.393 554.235 619.121 554.21 618.85C554.322 617.338 554.258 615.818 554.02 614.32C553.774 612.808 552.998 611.432 551.83 610.44C550.68 609.54 547.16 606.87 545.83 608.58C545.48 609.04 545.62 609.68 545.12 610.05C544.62 610.42 543.87 610.22 543.3 610.29C541.988 610.496 540.761 611.068 539.76 611.94Z" fill="#3F3D56"/>
<path id="Vector_43" d="M556.76 505.24C552.25 518.24 547.87 531.69 548.21 545.48C548.43 553.83 550.21 563.03 545.4 569.88C544.714 570.697 544.17 571.623 543.79 572.62C543.41 573.96 543.79 575.38 544.03 576.76C544.93 582.76 541.7 588.62 541.47 594.68C541.445 596.547 541.565 598.412 541.83 600.26L543.08 610.94C543.5 614.6 548.22 616.1 551.86 616.61C553.572 614.568 554.646 612.068 554.95 609.42C555.26 607.42 555.31 605.35 555.43 603.32C555.74 598.12 556.49 592.96 557.23 587.81L558.23 581.18C558.55 579 558.86 576.82 559.23 574.64C561.098 562.869 563.985 551.282 567.86 540.01C568.71 537.58 570.16 534.75 572.72 534.68L574.25 537.62C576.25 541.35 577.46 545.51 578.98 549.44C580.98 554.61 580.29 560.63 582.98 565.5C583.42 566.3 583.98 567.07 584.3 567.91C584.769 569.196 585.045 570.544 585.12 571.91L586.89 589.79C587.69 597.84 588.54 606.11 592.17 613.34C592.529 614.204 593.104 614.962 593.84 615.54C595.32 616.54 597.39 616.03 598.84 614.99C599.987 614.147 600.904 613.029 601.508 611.74C602.113 610.451 602.385 609.031 602.3 607.61C602.182 606.826 602.148 606.032 602.2 605.24C602.412 604.443 602.686 603.664 603.02 602.91C604.18 599.39 601.73 595.81 600.86 592.21C599.71 587.41 601.42 582.39 601.12 577.46C600.64 569.72 595.23 562.46 596.66 554.85C597.81 548.76 596.83 542.5 595.75 536.4L591.7 513.7C591.06 510.12 590.1 506.08 586.91 504.33C585.082 503.512 583.076 503.168 581.08 503.33C572.81 503.33 564.91 504.48 556.76 505.24Z" fill="#3F3D56"/>
<path id="Vector_44" d="M628.96 449.91C626.048 450.203 623.116 449.596 620.56 448.17C619.589 447.525 618.553 446.982 617.47 446.55C615.47 445.9 613.27 446.47 611.17 446.78C607.723 447.279 604.208 447.041 600.86 446.08C597.36 445.08 593.86 443.27 590.26 444.08C588.57 444.45 587.04 445.38 585.33 445.65C583.994 445.785 582.645 445.714 581.33 445.44L569.93 443.66C567.357 443.145 564.73 442.957 562.11 443.1C560.127 443.469 558.123 443.72 556.11 443.85C554 443.85 551.92 443.05 549.81 443.19C548.563 443.332 547.336 443.61 546.15 444.02C540.673 445.62 534.985 446.379 529.28 446.27C524.731 446.568 520.347 448.088 516.59 450.67C516.331 450.813 516.107 451.012 515.934 451.253C515.761 451.493 515.643 451.769 515.59 452.06C515.623 452.331 515.71 452.593 515.846 452.83C515.981 453.067 516.163 453.274 516.38 453.44C517.9 454.98 519.51 456.56 521.57 457.22C522.848 457.521 524.144 457.741 525.45 457.88C528.6 458.46 531.51 460.27 534.71 460.27C536.92 460.27 539.09 459.39 541.27 459.7C544.27 460.11 546.42 462.53 548.27 464.89C549.826 466.734 550.998 468.868 551.72 471.17C552.42 473.95 551.98 477.07 553.47 479.52C553.844 480.02 554.134 480.577 554.33 481.17C554.362 482.111 554.152 483.044 553.72 483.88C552.46 487.73 555.22 491.8 554.93 495.88C554.79 497.81 553.93 499.65 553.84 501.58C553.7 504.09 554.71 506.88 553.31 508.96C558.712 506.238 564.715 504.928 570.76 505.15C571.765 505.174 572.768 505.268 573.76 505.43C575.688 505.823 577.586 506.351 579.44 507.01C583.62 508.34 588.22 509.29 592.34 507.77C593.34 505.34 593.17 502.66 592.86 500.06C592.55 497.46 591.91 494.9 591.52 492.31C591.217 490.23 591.043 488.132 591 486.03C590.891 483.957 591.039 481.877 591.44 479.84C591.898 478.052 592.525 476.311 593.31 474.64C595.24 469.782 597.582 465.099 600.31 460.64C604.41 460.31 608.38 459.96 612.48 459.64C613.459 459.586 614.432 459.456 615.39 459.25C616.611 458.833 617.853 458.479 619.11 458.19C619.581 458.164 620.046 458.069 620.49 457.91C621.39 457.5 621.95 456.36 622.93 456.33C623.302 456.375 623.678 456.375 624.05 456.33C624.49 456.2 624.7 455.71 625.05 455.33C625.67 454.64 626.68 454.5 627.49 454.06C628.17 453.639 628.687 452.998 628.954 452.243C629.221 451.489 629.223 450.666 628.96 449.91V449.91Z" fill="#6C63FF"/>
<path id="Vector_45" d="M578.85 431.13C579.169 431.381 579.558 431.529 579.963 431.554C580.369 431.579 580.772 431.48 581.12 431.27C581.557 430.859 581.851 430.319 581.96 429.73C582.32 428.48 582.61 427.211 582.83 425.93C582.888 425.371 583.058 424.83 583.33 424.34C584.06 423.22 585.64 423.16 586.87 422.65C588.39 421.827 589.649 420.594 590.5 419.09L589.81 418.95L590.46 417.95C590.306 417.856 590.175 417.728 590.079 417.575C589.983 417.422 589.924 417.249 589.906 417.07C589.889 416.89 589.914 416.709 589.979 416.54C590.043 416.372 590.147 416.221 590.28 416.1C589.697 415.789 589.041 415.64 588.38 415.67C588.59 415.29 588.25 414.81 587.84 414.67C587.416 414.581 586.981 414.557 586.55 414.6C585.912 414.547 585.284 414.399 584.69 414.16C580.43 412.7 575.81 411.41 571.47 412.64C569.552 413.232 567.76 414.171 566.18 415.41C564.652 416.268 563.51 417.678 562.988 419.351C562.465 421.025 562.602 422.834 563.37 424.41C564.025 426.035 564.495 427.729 564.77 429.46C564.835 431.084 564.653 432.709 564.23 434.28C565.414 434.66 566.64 434.898 567.88 434.99C569.129 435.085 570.37 434.73 571.38 433.99C572.38 433.13 572.94 431.8 573.76 430.72C574.075 430.243 574.505 429.854 575.01 429.589C575.515 429.323 576.079 429.189 576.65 429.2C577.76 429.37 577.96 430.5 578.85 431.13Z" fill="#3F3D56"/>
<path id="Vector_46" d="M549.93 620.01H538.22C537.874 620.079 537.562 620.267 537.338 620.54C537.114 620.814 536.992 621.156 536.992 621.51C536.992 621.863 537.114 622.206 537.338 622.479C537.562 622.753 537.874 622.94 538.22 623.01H540.56V642.88H500.49C500.397 642.724 500.267 642.593 500.112 642.499C499.957 642.405 499.781 642.35 499.6 642.34H487.9C487.554 642.409 487.242 642.597 487.018 642.87C486.794 643.144 486.672 643.486 486.672 643.84C486.672 644.193 486.794 644.536 487.018 644.809C487.242 645.083 487.554 645.27 487.9 645.34H490.24V665.75H451.55C451.515 665.472 451.388 665.214 451.188 665.018C450.989 664.822 450.728 664.699 450.45 664.67H438.76C438.404 664.728 438.081 664.911 437.847 665.186C437.614 665.46 437.486 665.809 437.486 666.17C437.486 666.53 437.614 666.879 437.847 667.154C438.081 667.429 438.404 667.611 438.76 667.67H439.93V688.67H400.6C400.454 688.587 400.288 688.542 400.12 688.54H388.42C388.074 688.609 387.762 688.797 387.538 689.07C387.314 689.344 387.192 689.686 387.192 690.04C387.192 690.393 387.314 690.736 387.538 691.009C387.762 691.283 388.074 691.47 388.42 691.54H389.59V711.54H350.76C350.676 711.343 350.537 711.174 350.36 711.053C350.182 710.933 349.974 710.866 349.76 710.86H338.06C337.714 710.929 337.402 711.117 337.178 711.39C336.954 711.664 336.832 712.006 336.832 712.36C336.832 712.713 336.954 713.056 337.178 713.329C337.402 713.603 337.714 713.79 338.06 713.86H339.23V736.01H603.76V620.01H549.93Z" fill="#3F3D56"/>
<path id="Vector_47" opacity="0.1" d="M173.02 236.31C171.865 234.785 170.554 233.384 169.11 232.13C168.718 231.789 168.41 231.361 168.211 230.881C168.012 230.401 167.927 229.881 167.963 229.362C167.999 228.844 168.154 228.341 168.418 227.893C168.681 227.444 169.045 227.063 169.48 226.78C169.96 226.47 170.43 226.14 170.9 225.78C176.36 221.63 179.12 216.06 177.05 213.33C174.98 210.6 168.87 211.76 163.41 215.91C162.779 216.379 162.175 216.883 161.6 217.42C161.216 217.765 160.757 218.017 160.26 218.156C159.762 218.294 159.239 218.316 158.732 218.219C158.225 218.122 157.747 217.91 157.335 217.597C156.924 217.285 156.59 216.882 156.36 216.42C155.593 214.916 154.693 213.483 153.67 212.14C148.81 205.74 142.29 202.51 139.1 204.93C135.91 207.35 137.25 214.51 142.1 220.93C143.048 222.184 144.102 223.355 145.25 224.43C145.629 224.799 145.917 225.252 146.089 225.753C146.261 226.253 146.313 226.787 146.241 227.312C146.169 227.836 145.975 228.336 145.674 228.772C145.374 229.207 144.975 229.566 144.51 229.82C138.51 233.25 135.12 238.42 136.82 241.39C138.52 244.36 144.74 243.99 150.69 240.57C151.612 240.034 152.5 239.443 153.35 238.8C153.75 238.495 154.213 238.284 154.705 238.181C155.198 238.078 155.707 238.086 156.195 238.205C156.684 238.324 157.14 238.55 157.53 238.868C157.92 239.185 158.234 239.585 158.45 240.04C159.261 241.812 160.267 243.489 161.45 245.04C166.3 251.44 172.83 254.67 176.02 252.25C179.21 249.83 177.87 242.72 173.02 236.31Z" fill="#F531B3"/>
<path id="Vector_48" opacity="0.1" d="M881.34 409.12C882.468 407.576 883.43 405.917 884.21 404.17C884.42 403.696 884.738 403.277 885.138 402.946C885.538 402.616 886.009 402.383 886.515 402.267C887.02 402.151 887.546 402.153 888.051 402.276C888.555 402.398 889.024 402.636 889.42 402.97C889.86 403.33 890.32 403.68 890.79 404.03C896.35 408.03 902.49 409.03 904.49 406.28C906.49 403.53 903.61 398 898.05 393.98C897.383 393.507 896.717 393.077 896.05 392.69C895.608 392.422 895.234 392.055 894.958 391.618C894.681 391.181 894.51 390.686 894.456 390.172C894.403 389.658 894.47 389.138 894.651 388.654C894.832 388.169 895.122 387.734 895.5 387.38C896.716 386.212 897.821 384.933 898.8 383.56C903.51 377.05 904.69 369.87 901.45 367.56C898.21 365.25 891.75 368.56 887.04 375.11C886.121 376.374 885.308 377.712 884.61 379.11C884.368 379.581 884.019 379.988 883.591 380.299C883.162 380.61 882.667 380.817 882.145 380.901C881.622 380.986 881.087 380.947 880.583 380.787C880.078 380.627 879.618 380.351 879.24 379.98V379.98C874.24 375.29 868.24 373.51 865.93 375.98C863.62 378.45 865.76 384.31 870.77 388.98C871.549 389.701 872.374 390.369 873.24 390.98C873.647 391.275 873.984 391.657 874.225 392.099C874.465 392.54 874.605 393.029 874.633 393.531C874.66 394.033 874.576 394.535 874.385 395C874.194 395.466 873.902 395.882 873.53 396.22C872.063 397.535 870.745 399.007 869.6 400.61C864.89 407.12 863.71 414.3 866.96 416.61C870.21 418.92 876.63 415.64 881.34 409.12Z" fill="#F531B3"/>
<path id="Vector_49" d="M886.46 746.69C905.127 746.69 920.26 743.78 920.26 740.19C920.26 736.601 905.127 733.69 886.46 733.69C867.793 733.69 852.66 736.601 852.66 740.19C852.66 743.78 867.793 746.69 886.46 746.69Z" fill="#6C63FF"/>
<path id="Vector_50" d="M885.9 742.58C888.076 742.58 889.84 740.275 889.84 737.43C889.84 734.586 888.076 732.28 885.9 732.28C883.724 732.28 881.96 734.586 881.96 737.43C881.96 740.275 883.724 742.58 885.9 742.58Z" fill="#3F3D56"/>
<path id="Vector_51" d="M885.9 736.281C888.076 736.281 889.84 733.975 889.84 731.13C889.84 728.286 888.076 725.98 885.9 725.98C883.724 725.98 881.96 728.286 881.96 731.13C881.96 733.975 883.724 736.281 885.9 736.281Z" fill="#3F3D56"/>
<path id="Vector_52" d="M885.9 729.99C888.076 729.99 889.84 727.685 889.84 724.84C889.84 721.996 888.076 719.69 885.9 719.69C883.724 719.69 881.96 721.996 881.96 724.84C881.96 727.685 883.724 729.99 885.9 729.99Z" fill="#3F3D56"/>
<path id="Vector_53" d="M885.9 723.69C888.076 723.69 889.84 721.384 889.84 718.54C889.84 715.695 888.076 713.39 885.9 713.39C883.724 713.39 881.96 715.695 881.96 718.54C881.96 721.384 883.724 723.69 885.9 723.69Z" fill="#3F3D56"/>
<path id="Vector_54" d="M885.9 717.39C888.076 717.39 889.84 715.084 889.84 712.24C889.84 709.396 888.076 707.09 885.9 707.09C883.724 707.09 881.96 709.396 881.96 712.24C881.96 715.084 883.724 717.39 885.9 717.39Z" fill="#3F3D56"/>
<path id="Vector_55" d="M885.9 711.1C888.076 711.1 889.84 708.794 889.84 705.95C889.84 703.106 888.076 700.8 885.9 700.8C883.724 700.8 881.96 703.106 881.96 705.95C881.96 708.794 883.724 711.1 885.9 711.1Z" fill="#3F3D56"/>
<path id="Vector_56" d="M885.9 704.8C888.076 704.8 889.84 702.494 889.84 699.65C889.84 696.806 888.076 694.5 885.9 694.5C883.724 694.5 881.96 696.806 881.96 699.65C881.96 702.494 883.724 704.8 885.9 704.8Z" fill="#3F3D56"/>
<path id="Vector_57" d="M900.63 656.56C901.163 655.872 901.651 655.151 902.09 654.4L891.76 652.7L902.94 652.79C904.016 650.456 904.603 647.926 904.665 645.357C904.726 642.788 904.262 640.233 903.3 637.85L888.3 645.63L902.14 635.46C900.838 633.23 899.092 631.292 897.01 629.765C894.929 628.238 892.555 627.155 890.038 626.583C887.52 626.011 884.912 625.962 882.374 626.44C879.837 626.917 877.425 627.911 875.288 629.359C873.15 630.807 871.333 632.679 869.949 634.859C868.565 637.038 867.643 639.479 867.241 642.029C866.839 644.579 866.966 647.185 867.612 649.685C868.259 652.184 869.412 654.524 871 656.56C870.164 657.628 869.444 658.781 868.85 660L882.28 667L867.96 662.2C866.952 665.167 866.699 668.339 867.223 671.429C867.747 674.519 869.031 677.43 870.96 679.9C868.774 682.681 867.415 686.02 867.038 689.537C866.66 693.054 867.28 696.606 868.826 699.787C870.371 702.968 872.781 705.65 875.779 707.527C878.777 709.403 882.243 710.398 885.78 710.398C889.317 710.398 892.782 709.403 895.781 707.527C898.779 705.65 901.188 702.968 902.734 699.787C904.28 696.606 904.9 693.054 904.522 689.537C904.145 686.02 902.786 682.681 900.6 679.9C903.211 676.576 904.629 672.471 904.629 668.245C904.629 664.018 903.211 659.914 900.6 656.59L900.63 656.56Z" fill="#27AE60"/>
<path id="Vector_58" opacity="0.1" d="M866.96 668.21C866.947 672.435 868.356 676.542 870.96 679.87C868.774 682.651 867.415 685.99 867.038 689.507C866.66 693.024 867.28 696.576 868.826 699.757C870.371 702.938 872.781 705.621 875.779 707.497C878.777 709.373 882.243 710.369 885.78 710.369C889.317 710.369 892.782 709.373 895.781 707.497C898.779 705.621 901.188 702.938 902.734 699.757C904.28 696.576 904.9 693.024 904.522 689.507C904.145 685.99 902.786 682.651 900.6 679.87C903.15 676.66 866.96 666.1 866.96 668.21Z" fill="black"/>
<path id="Vector_59" d="M270.46 744.68C278.91 744.68 285.76 743.364 285.76 741.74C285.76 740.116 278.91 738.8 270.46 738.8C262.01 738.8 255.16 740.116 255.16 741.74C255.16 743.364 262.01 744.68 270.46 744.68Z" fill="#6C63FF"/>
<path id="Vector_60" d="M270.21 742.82C271.193 742.82 271.99 741.777 271.99 740.49C271.99 739.203 271.193 738.16 270.21 738.16C269.227 738.16 268.43 739.203 268.43 740.49C268.43 741.777 269.227 742.82 270.21 742.82Z" fill="#3F3D56"/>
<path id="Vector_61" d="M270.21 739.97C271.193 739.97 271.99 738.926 271.99 737.64C271.99 736.353 271.193 735.31 270.21 735.31C269.227 735.31 268.43 736.353 268.43 737.64C268.43 738.926 269.227 739.97 270.21 739.97Z" fill="#3F3D56"/>
<path id="Vector_62" d="M270.21 737.12C271.193 737.12 271.99 736.077 271.99 734.79C271.99 733.503 271.193 732.46 270.21 732.46C269.227 732.46 268.43 733.503 268.43 734.79C268.43 736.077 269.227 737.12 270.21 737.12Z" fill="#3F3D56"/>
<path id="Vector_63" d="M270.21 734.27C271.193 734.27 271.99 733.227 271.99 731.94C271.99 730.654 271.193 729.61 270.21 729.61C269.227 729.61 268.43 730.654 268.43 731.94C268.43 733.227 269.227 734.27 270.21 734.27Z" fill="#3F3D56"/>
<path id="Vector_64" d="M270.21 731.42C271.193 731.42 271.99 730.377 271.99 729.09C271.99 727.803 271.193 726.76 270.21 726.76C269.227 726.76 268.43 727.803 268.43 729.09C268.43 730.377 269.227 731.42 270.21 731.42Z" fill="#3F3D56"/>
<path id="Vector_65" d="M270.21 728.57C271.193 728.57 271.99 727.527 271.99 726.24C271.99 724.953 271.193 723.91 270.21 723.91C269.227 723.91 268.43 724.953 268.43 726.24C268.43 727.527 269.227 728.57 270.21 728.57Z" fill="#3F3D56"/>
<path id="Vector_66" d="M270.21 725.72C271.193 725.72 271.99 724.676 271.99 723.39C271.99 722.103 271.193 721.06 270.21 721.06C269.227 721.06 268.43 722.103 268.43 723.39C268.43 724.676 269.227 725.72 270.21 725.72Z" fill="#3F3D56"/>
<path id="Vector_67" d="M276.87 703.88C277.118 703.564 277.342 703.23 277.54 702.88L272.86 702.11H277.92C278.435 700.99 278.701 699.773 278.7 698.54C278.702 697.447 278.492 696.363 278.08 695.35L271.29 698.87L277.55 694.27C276.961 693.261 276.171 692.384 275.229 691.693C274.286 691.002 273.212 690.512 272.073 690.253C270.933 689.994 269.753 689.972 268.605 690.188C267.457 690.405 266.365 690.855 265.398 691.51C264.431 692.166 263.608 693.013 262.982 693.999C262.356 694.986 261.939 696.09 261.757 697.245C261.576 698.399 261.633 699.578 261.926 700.709C262.219 701.84 262.741 702.899 263.46 703.82C263.072 704.299 262.737 704.819 262.46 705.37L268.53 708.53L262.05 706.35C261.598 707.694 261.488 709.128 261.729 710.525C261.97 711.921 262.554 713.236 263.43 714.35C262.437 715.609 261.818 717.123 261.645 718.717C261.472 720.311 261.751 721.922 262.451 723.365C263.15 724.808 264.242 726.025 265.601 726.876C266.96 727.728 268.531 728.179 270.135 728.179C271.739 728.179 273.31 727.728 274.669 726.876C276.028 726.025 277.12 724.808 277.819 723.365C278.519 721.922 278.798 720.311 278.625 718.717C278.452 717.123 277.833 715.609 276.84 714.35C278.025 712.847 278.669 710.989 278.669 709.075C278.669 707.161 278.025 705.303 276.84 703.8L276.87 703.88Z" fill="#27AE60"/>
<path id="Vector_68" opacity="0.1" d="M261.63 709.15C261.63 711.065 262.274 712.925 263.46 714.43C262.467 715.689 261.848 717.202 261.675 718.797C261.502 720.391 261.781 722.002 262.481 723.445C263.18 724.888 264.272 726.105 265.631 726.956C266.99 727.807 268.561 728.259 270.165 728.259C271.769 728.259 273.34 727.807 274.699 726.956C276.058 726.105 277.15 724.888 277.849 723.445C278.549 722.002 278.828 720.391 278.655 718.797C278.482 717.202 277.863 715.689 276.87 714.43C278.02 713.01 261.63 708.19 261.63 709.15Z" fill="black"/>
</g>
<defs>
<linearGradient id="paint0_linear" x1="571.93" y1="732.71" x2="571.93" y2="113.71" gradientUnits="userSpaceOnUse">
<stop stop-color="#808080" stop-opacity="0.25"/>
<stop offset="0.54" stop-color="#808080" stop-opacity="0.12"/>
<stop offset="1" stop-color="#808080" stop-opacity="0.1"/>
</linearGradient>
<linearGradient id="paint1_linear" x1="-5445.92" y1="2443.99" x2="-5409.92" y2="2443.99" gradientUnits="userSpaceOnUse">
<stop stop-color="#808080" stop-opacity="0.25"/>
<stop offset="0.54" stop-color="#808080" stop-opacity="0.12"/>
<stop offset="1" stop-color="#808080" stop-opacity="0.1"/>
</linearGradient>
<linearGradient id="paint2_linear" x1="67507.2" y1="145882" x2="67507.2" y2="101829" gradientUnits="userSpaceOnUse">
<stop stop-color="#808080" stop-opacity="0.25"/>
<stop offset="0.54" stop-color="#808080" stop-opacity="0.12"/>
<stop offset="1" stop-color="#808080" stop-opacity="0.1"/>
</linearGradient>
<clipPath id="clip0">
<rect width="1167.52" height="756.03" fill="white"/>
</clipPath>
</defs>
</svg>
