<svg width="174" height="183" viewBox="0 0 174 183" fill="none" xmlns="http://www.w3.org/2000/svg">
<g id="Exclude" filter="url(#filter0_d)">
<path fill-rule="evenodd" clip-rule="evenodd" d="M150 133.26C150 132.13 149.749 131.063 149.247 130.058L123.021 49.1635L127.259 32.2477C128.106 31.306 128.53 30.1759 128.53 28.8575C128.53 27.3508 127.965 26.0795 126.835 25.0436C125.705 23.9136 124.434 23.3486 123.021 23.3486C121.42 23.3486 120.055 24.0549 118.925 25.4674L108.294 38.9887L95.3812 10.2735C94.6278 8.64125 93.4978 7.38565 91.991 6.50673C90.4843 5.50224 88.7892 5 86.9058 5C85.148 5 83.5157 5.43946 82.009 6.31838C80.5022 7.19731 79.3722 8.5157 78.6188 10.2735L66.5958 37.0102L57.4786 25.4674C56.3486 24.0549 54.9831 23.3486 53.3822 23.3486C51.9697 23.3486 50.6984 23.8665 49.5683 24.9024C48.5325 25.9383 48.0145 27.1625 48.0145 28.575C48.0145 29.9876 48.4854 31.2118 49.4271 32.2477L53.3822 50.9794L24.7534 130.058C24.2511 131.063 24 132.067 24 133.072C24 134.955 24.7534 136.587 26.2601 137.969C27.7668 139.224 29.5247 139.852 31.5336 139.852C34.6726 139.852 36.87 138.345 38.1256 135.332L46.3195 118.696C46.3195 120.109 46.8845 121.38 48.0145 122.51C49.1446 123.546 50.4159 124.064 51.8284 124.064C53.5235 124.064 54.889 123.405 55.9248 122.086L69.5119 104.821H106.951L120.479 122.086C121.703 123.405 123.068 124.064 124.575 124.064C126.082 124.064 127.4 123.546 128.53 122.51C129.057 122.027 129.46 121.494 129.742 120.909L136.063 135.332C137.318 138.345 139.516 139.852 142.655 139.852C144.664 139.852 146.359 139.224 147.74 137.969C149.247 136.713 150 135.143 150 133.26ZM110.43 92.0135H117.04L103.673 61.8329L95.0526 72.6468L110.43 92.0135ZM98.8665 50.9794L87.0942 24.3991L76.1951 49.1635L88.2724 64.454L98.8665 50.9794ZM71.436 59.9769L57.3363 92.0135H66.0503L81.4921 72.6468L71.436 59.9769ZM79.5904 92.0135H96.9165L88.2724 80.9809L79.5904 92.0135Z" fill="white"/>
<path d="M117.08 24.0045L117.086 23.9967C118.598 22.1079 120.606 20.9943 123.021 20.9943C125.126 20.9943 126.962 21.8568 128.464 23.3433C130.046 24.8113 130.884 26.6952 130.884 28.8575C130.884 30.5174 130.397 32.0391 129.414 33.3331L125.469 49.0802L151.435 129.175C152.047 130.46 152.354 131.83 152.354 133.26C152.354 135.858 151.279 138.067 149.286 139.745C147.444 141.403 145.183 142.206 142.655 142.206C140.697 142.206 138.878 141.731 137.321 140.664C135.777 139.605 134.661 138.08 133.898 136.258L129.013 125.111C127.699 125.972 126.204 126.418 124.575 126.418C122.288 126.418 120.329 125.385 118.753 123.688L118.686 123.616L118.625 123.538L105.805 107.175H70.655L57.776 123.541L117.08 24.0045ZM117.08 24.0045L117.074 24.0123M117.08 24.0045L117.074 24.0123M117.074 24.0123L108.846 34.477M117.074 24.0123L108.846 34.477M108.846 34.477L97.5283 9.308L97.5236 9.29746L97.5187 9.28697C96.5797 7.25236 95.1449 5.63744 93.2383 4.50902C91.3434 3.26205 89.2105 2.64574 86.9058 2.64574C84.7345 2.64574 82.6924 3.19417 80.8227 4.28482C78.8437 5.43924 77.3959 7.16081 76.4636 9.32603L66.0393 32.5074L59.3261 24.0082L59.3216 24.0024L59.317 23.9967C57.8059 22.1079 55.7973 20.9943 53.3822 20.9943C51.3282 20.9943 49.5015 21.77 47.9775 23.1669L47.9398 23.2015L47.9036 23.2377C46.4445 24.6968 45.6603 26.5127 45.6603 28.575C45.6603 30.3355 46.1953 31.9383 47.244 33.3041L50.9401 50.8091L22.5835 129.136C21.9779 130.39 21.6457 131.708 21.6457 133.072C21.6457 135.675 22.7225 137.919 24.6693 139.704L24.7102 139.742L24.7529 139.777C26.6938 141.395 28.9885 142.206 31.5336 142.206C33.4917 142.206 35.3108 141.731 36.8673 140.664C38.3971 139.615 39.5065 138.108 40.2686 136.309L46.28 124.104C46.3031 124.128 46.3264 124.151 46.3498 124.175L46.386 124.211L46.4237 124.245C47.9476 125.642 49.7744 126.418 51.8284 126.418C54.236 126.418 56.2871 125.435 57.7749 123.542L108.846 34.477ZM103.094 66.3371L113.423 89.6592H111.567L98.0611 72.6497L103.094 66.3371ZM88.2681 60.6503L78.9204 48.8156L87.101 30.2281L96.1403 50.6377L88.2681 60.6503ZM64.9164 89.6592H60.9446L72.0185 64.4978L78.4838 72.6434L64.9164 89.6592ZM84.4389 89.6592L88.2683 84.7929L92.0811 89.6592H84.4389Z" stroke="#18A0FB" stroke-width="4.70852"/>
</g>
<defs>
<filter id="filter0_d" x="0.457399" y="0.291473" width="173.085" height="181.937" filterUnits="userSpaceOnUse" color-interpolation-filters="sRGB">
<feFlood flood-opacity="0" result="BackgroundImageFix"/>
<feColorMatrix in="SourceAlpha" type="matrix" values="0 0 0 0 0 0 0 0 0 0 0 0 0 0 0 0 0 0 127 0"/>
<feOffset dy="18.8341"/>
<feGaussianBlur stdDeviation="9.41704"/>
<feColorMatrix type="matrix" values="0 0 0 0 0 0 0 0 0 0 0 0 0 0 0 0 0 0 0.25 0"/>
<feBlend mode="normal" in2="BackgroundImageFix" result="effect1_dropShadow"/>
<feBlend mode="normal" in="SourceGraphic" in2="effect1_dropShadow" result="shape"/>
</filter>
</defs>
</svg>
