<svg width="174" height="183" viewBox="0 0 174 183" fill="none" xmlns="http://www.w3.org/2000/svg">
<g id="Exclude" filter="url(#filter0_d)">
<mask id="path-1-outside-1" maskUnits="userSpaceOnUse" x="19" y="0" width="136" height="145" fill="black">
<rect fill="white" x="19" width="136" height="145"/>
<path fill-rule="evenodd" clip-rule="evenodd" d="M150 133.26C150 132.13 149.749 131.063 149.247 130.058L123.021 49.1635L127.259 32.2477C128.106 31.306 128.53 30.1759 128.53 28.8575C128.53 27.3508 127.965 26.0795 126.835 25.0436C125.705 23.9136 124.434 23.3486 123.021 23.3486C121.42 23.3486 120.055 24.0549 118.925 25.4674L108.294 38.9887L95.3812 10.2735C94.6278 8.64125 93.4978 7.38565 91.991 6.50673C90.4843 5.50224 88.7892 5 86.9058 5C85.148 5 83.5157 5.43946 82.009 6.31838C80.5022 7.19731 79.3722 8.5157 78.6188 10.2735L66.5958 37.0102L57.4786 25.4674C56.3486 24.0549 54.9831 23.3486 53.3822 23.3486C51.9697 23.3486 50.6984 23.8665 49.5683 24.9024C48.5325 25.9383 48.0145 27.1625 48.0145 28.575C48.0145 29.9876 48.4854 31.2118 49.4271 32.2477L53.3822 50.9794L24.7534 130.058C24.2511 131.063 24 132.067 24 133.072C24 134.955 24.7534 136.587 26.2601 137.969C27.7668 139.224 29.5247 139.852 31.5336 139.852C34.6726 139.852 36.87 138.345 38.1256 135.332L46.3195 118.696C46.3195 120.109 46.8845 121.38 48.0145 122.51C49.1446 123.546 50.4159 124.064 51.8284 124.064C53.5235 124.064 54.889 123.405 55.9248 122.086L69.5119 104.821H106.951L120.479 122.086C121.703 123.405 123.068 124.064 124.575 124.064C126.082 124.064 127.4 123.546 128.53 122.51C129.057 122.027 129.46 121.494 129.742 120.909L136.063 135.332C137.318 138.345 139.516 139.852 142.655 139.852C144.664 139.852 146.359 139.224 147.74 137.969C149.247 136.713 150 135.143 150 133.26ZM110.43 92.0135H117.04L103.673 61.8329L95.0526 72.6468L110.43 92.0135ZM98.8665 50.9794L87.0942 24.3991L76.1951 49.1635L88.2724 64.454L98.8665 50.9794ZM71.436 59.9769L57.3363 92.0135H66.0503L81.4921 72.6468L71.436 59.9769ZM79.5904 92.0135H96.9165L88.2724 80.9809L79.5904 92.0135Z"/>
</mask>
<path fill-rule="evenodd" clip-rule="evenodd" d="M150 133.26C150 132.13 149.749 131.063 149.247 130.058L123.021 49.1635L127.259 32.2477C128.106 31.306 128.53 30.1759 128.53 28.8575C128.53 27.3508 127.965 26.0795 126.835 25.0436C125.705 23.9136 124.434 23.3486 123.021 23.3486C121.42 23.3486 120.055 24.0549 118.925 25.4674L108.294 38.9887L95.3812 10.2735C94.6278 8.64125 93.4978 7.38565 91.991 6.50673C90.4843 5.50224 88.7892 5 86.9058 5C85.148 5 83.5157 5.43946 82.009 6.31838C80.5022 7.19731 79.3722 8.5157 78.6188 10.2735L66.5958 37.0102L57.4786 25.4674C56.3486 24.0549 54.9831 23.3486 53.3822 23.3486C51.9697 23.3486 50.6984 23.8665 49.5683 24.9024C48.5325 25.9383 48.0145 27.1625 48.0145 28.575C48.0145 29.9876 48.4854 31.2118 49.4271 32.2477L53.3822 50.9794L24.7534 130.058C24.2511 131.063 24 132.067 24 133.072C24 134.955 24.7534 136.587 26.2601 137.969C27.7668 139.224 29.5247 139.852 31.5336 139.852C34.6726 139.852 36.87 138.345 38.1256 135.332L46.3195 118.696C46.3195 120.109 46.8845 121.38 48.0145 122.51C49.1446 123.546 50.4159 124.064 51.8284 124.064C53.5235 124.064 54.889 123.405 55.9248 122.086L69.5119 104.821H106.951L120.479 122.086C121.703 123.405 123.068 124.064 124.575 124.064C126.082 124.064 127.4 123.546 128.53 122.51C129.057 122.027 129.46 121.494 129.742 120.909L136.063 135.332C137.318 138.345 139.516 139.852 142.655 139.852C144.664 139.852 146.359 139.224 147.74 137.969C149.247 136.713 150 135.143 150 133.26ZM110.43 92.0135H117.04L103.673 61.8329L95.0526 72.6468L110.43 92.0135ZM98.8665 50.9794L87.0942 24.3991L76.1951 49.1635L88.2724 64.454L98.8665 50.9794ZM71.436 59.9769L57.3363 92.0135H66.0503L81.4921 72.6468L71.436 59.9769ZM79.5904 92.0135H96.9165L88.2724 80.9809L79.5904 92.0135Z" fill="white"/>
<path fill-rule="evenodd" clip-rule="evenodd" d="M150 133.26C150 132.13 149.749 131.063 149.247 130.058L123.021 49.1635L127.259 32.2477C128.106 31.306 128.53 30.1759 128.53 28.8575C128.53 27.3508 127.965 26.0795 126.835 25.0436C125.705 23.9136 124.434 23.3486 123.021 23.3486C121.42 23.3486 120.055 24.0549 118.925 25.4674L108.294 38.9887L95.3812 10.2735C94.6278 8.64125 93.4978 7.38565 91.991 6.50673C90.4843 5.50224 88.7892 5 86.9058 5C85.148 5 83.5157 5.43946 82.009 6.31838C80.5022 7.19731 79.3722 8.5157 78.6188 10.2735L66.5958 37.0102L57.4786 25.4674C56.3486 24.0549 54.9831 23.3486 53.3822 23.3486C51.9697 23.3486 50.6984 23.8665 49.5683 24.9024C48.5325 25.9383 48.0145 27.1625 48.0145 28.575C48.0145 29.9876 48.4854 31.2118 49.4271 32.2477L53.3822 50.9794L24.7534 130.058C24.2511 131.063 24 132.067 24 133.072C24 134.955 24.7534 136.587 26.2601 137.969C27.7668 139.224 29.5247 139.852 31.5336 139.852C34.6726 139.852 36.87 138.345 38.1256 135.332L46.3195 118.696C46.3195 120.109 46.8845 121.38 48.0145 122.51C49.1446 123.546 50.4159 124.064 51.8284 124.064C53.5235 124.064 54.889 123.405 55.9248 122.086L69.5119 104.821H106.951L120.479 122.086C121.703 123.405 123.068 124.064 124.575 124.064C126.082 124.064 127.4 123.546 128.53 122.51C129.057 122.027 129.46 121.494 129.742 120.909L136.063 135.332C137.318 138.345 139.516 139.852 142.655 139.852C144.664 139.852 146.359 139.224 147.74 137.969C149.247 136.713 150 135.143 150 133.26ZM110.43 92.0135H117.04L103.673 61.8329L95.0526 72.6468L110.43 92.0135ZM98.8665 50.9794L87.0942 24.3991L76.1951 49.1635L88.2724 64.454L98.8665 50.9794ZM71.436 59.9769L57.3363 92.0135H66.0503L81.4921 72.6468L71.436 59.9769ZM79.5904 92.0135H96.9165L88.2724 80.9809L79.5904 92.0135Z" stroke="#18A0FB" stroke-width="9.41704" mask="url(#path-1-outside-1)"/>
</g>
<defs>
<filter id="filter0_d" x="0.457399" y="0.291473" width="173.085" height="181.937" filterUnits="userSpaceOnUse" color-interpolation-filters="sRGB">
<feFlood flood-opacity="0" result="BackgroundImageFix"/>
<feColorMatrix in="SourceAlpha" type="matrix" values="0 0 0 0 0 0 0 0 0 0 0 0 0 0 0 0 0 0 127 0"/>
<feOffset dy="18.8341"/>
<feGaussianBlur stdDeviation="9.41704"/>
<feColorMatrix type="matrix" values="0 0 0 0 0 0 0 0 0 0 0 0 0 0 0 0 0 0 0.25 0"/>
<feBlend mode="normal" in2="BackgroundImageFix" result="effect1_dropShadow"/>
<feBlend mode="normal" in="SourceGraphic" in2="effect1_dropShadow" result="shape"/>
</filter>
</defs>
</svg>
