<svg width="37" height="47" viewBox="0 0 37 47" fill="none" xmlns="http://www.w3.org/2000/svg">
<g id="Component 1">
<g id="A" filter="url(#filter0_d)">
<path id="Vector" d="M31.6 27.56C31.7067 27.7733 31.76 28 31.76 28.24C31.76 28.64 31.6 28.9733 31.28 29.24C30.9867 29.5067 30.6267 29.64 30.2 29.64C29.5333 29.64 29.0667 29.32 28.8 28.68L25.96 22.2H10.88L8 28.68C7.73333 29.32 7.26667 29.64 6.6 29.64C6.17333 29.64 5.8 29.5067 5.48 29.24C5.16 28.9467 5 28.6 5 28.2C5 27.9867 5.05333 27.7733 5.16 27.56L16.6 2.12C16.76 1.7467 17 1.4667 17.32 1.28C17.64 1.0933 17.9867 1 18.36 1C18.76 1 19.12 1.1067 19.44 1.32C19.76 1.5067 20 1.7733 20.16 2.12L31.6 27.56ZM12.08 19.48H24.76L18.4 5.12L12.08 19.48Z" fill="white"/>
<path id="Vector_2" d="M31.6 27.56L30.688 27.9701L30.6964 27.9889L30.7056 28.0072L31.6 27.56ZM31.28 29.24L30.6398 28.4718L30.6233 28.4856L30.6073 28.5001L31.28 29.24ZM28.8 28.68L29.7231 28.2954L29.7196 28.287L29.7159 28.2786L28.8 28.68ZM25.96 22.2L26.8759 21.7986L26.6136 21.2H25.96V22.2ZM10.88 22.2V21.2H10.2301L9.9662 21.7939L10.88 22.2ZM8 28.68L7.08619 28.2739L7.08143 28.2846L7.07692 28.2954L8 28.68ZM5.48 29.24L4.80428 29.9772L4.82168 29.9931L4.83982 30.0082L5.48 29.24ZM5.16 27.56L6.05443 28.0072L6.06361 27.9889L6.07203 27.9701L5.16 27.56ZM16.6 2.12L17.512 2.5301L17.5157 2.5221L17.5191 2.5139L16.6 2.12ZM17.32 1.28L16.8161 0.4162L17.32 1.28ZM19.44 1.32L18.8853 2.152L18.9102 2.1687L18.9361 2.1838L19.44 1.32ZM20.16 2.12L21.0721 1.7099L21.068 1.7009L20.16 2.12ZM12.08 19.48L11.1647 19.0772L10.5473 20.48H12.08V19.48ZM24.76 19.48V20.48H26.2966L25.6743 19.075L24.76 19.48ZM18.4 5.12L19.3143 4.715L18.3971 2.6441L17.4847 4.7172L18.4 5.12ZM30.7056 28.0072C30.7424 28.0808 30.76 28.1542 30.76 28.24H32.76C32.76 27.8458 32.671 27.4659 32.4944 27.1128L30.7056 28.0072ZM30.76 28.24C30.76 28.3294 30.7427 28.3861 30.6398 28.4718L31.9202 30.0082C32.4573 29.5606 32.76 28.9506 32.76 28.24H30.76ZM30.6073 28.5001C30.5128 28.586 30.3986 28.64 30.2 28.64V30.64C30.8548 30.64 31.4605 30.4273 31.9527 29.9799L30.6073 28.5001ZM30.2 28.64C30.0317 28.64 29.9544 28.6019 29.9155 28.5753C29.8739 28.5467 29.799 28.4776 29.7231 28.2954L27.8769 29.0646C28.0677 29.5224 28.3594 29.9333 28.7845 30.2247C29.2123 30.5181 29.7016 30.64 30.2 30.64V28.64ZM29.7159 28.2786L26.8759 21.7986L25.0441 22.6014L27.8841 29.0814L29.7159 28.2786ZM25.96 21.2H10.88V23.2H25.96V21.2ZM9.9662 21.7939L7.08619 28.2739L8.91381 29.0861L11.7938 22.6061L9.9662 21.7939ZM7.07692 28.2954C7.001 28.4776 6.92608 28.5467 6.88447 28.5753C6.84562 28.6019 6.76828 28.64 6.6 28.64V30.64C7.09839 30.64 7.58771 30.5181 8.01553 30.2247C8.44059 29.9333 8.73233 29.5224 8.92308 29.0646L7.07692 28.2954ZM6.6 28.64C6.40107 28.64 6.25576 28.5848 6.12018 28.4718L4.83982 30.0082C5.34424 30.4286 5.9456 30.64 6.6 30.64V28.64ZM6.15572 28.5028C6.02265 28.3809 6 28.294 6 28.2H4C4 28.906 4.29735 29.5125 4.80428 29.9772L6.15572 28.5028ZM6 28.2C6 28.1594 6.0089 28.0983 6.05443 28.0072L4.26557 27.1128C4.09776 27.4484 4 27.8139 4 28.2H6ZM6.07203 27.9701L17.512 2.5301L15.688 1.7099L4.24797 27.1499L6.07203 27.9701ZM17.5191 2.5139C17.6033 2.3176 17.7071 2.2119 17.8239 2.1438L16.8161 0.4162C16.2929 0.7214 15.9167 1.1757 15.6809 1.7261L17.5191 2.5139ZM17.8239 2.1438C17.9897 2.047 18.1623 2 18.36 2V0C17.8111 0 17.2903 0.1396 16.8161 0.4162L17.8239 2.1438ZM18.36 2C18.5709 2 18.7364 2.0528 18.8853 2.152L19.9947 0.4879C19.5036 0.1606 18.9491 0 18.36 0V2ZM18.9361 2.1838C19.0733 2.2638 19.1752 2.3725 19.252 2.5391L21.068 1.7009C20.8248 1.1742 20.4467 0.7495 19.9439 0.4562L18.9361 2.1838ZM19.248 2.5301L30.688 27.9701L32.512 27.1499L21.072 1.7099L19.248 2.5301ZM12.08 20.48H24.76V18.48H12.08V20.48ZM25.6743 19.075L19.3143 4.715L17.4857 5.525L23.8457 19.885L25.6743 19.075ZM17.4847 4.7172L11.1647 19.0772L12.9953 19.8828L19.3153 5.5228L17.4847 4.7172Z" fill="#27AE60"/>
</g>
<g id="X" filter="url(#filter1_d)">
<path id="Vector_3" d="M27.14 35.6699C27.34 35.8899 27.44 36.1399 27.44 36.4199C27.44 36.7399 27.32 37.0099 27.08 37.2299C26.84 37.4499 26.56 37.5599 26.24 37.5599C25.92 37.5599 25.63 37.4199 25.37 37.1399L18.53 28.4099L11.66 37.1399C11.44 37.4199 11.15 37.5599 10.79 37.5599C10.49 37.5599 10.22 37.4499 9.98 37.2299C9.74 36.9899 9.62 36.7199 9.62 36.4199C9.62 36.1199 9.71 35.8699 9.89 35.6699L17.09 26.6399L10.28 18.0599C10.08 17.8399 9.98 17.5799 9.98 17.2799C9.98 16.9799 10.09 16.7199 10.31 16.4999C10.55 16.2799 10.82 16.1699 11.12 16.1699C11.46 16.1699 11.75 16.3199 11.99 16.6199L18.53 24.8999L25.04 16.6199C25.28 16.3199 25.57 16.1699 25.91 16.1699C26.21 16.1699 26.48 16.2899 26.72 16.5299C26.96 16.7499 27.08 17.0199 27.08 17.3399C27.08 17.6199 26.99 17.8599 26.81 18.0599L19.97 26.6399L27.14 35.6699Z" fill="white"/>
<path id="Vector_4" d="M27.14 35.6699L26.3569 36.2917L26.3776 36.3179L26.4001 36.3426L27.14 35.6699ZM27.08 37.2299L27.7557 37.9671L27.08 37.2299ZM25.37 37.1399L24.5828 37.7566L24.6087 37.7896L24.6372 37.8204L25.37 37.1399ZM18.53 28.4099L19.3172 27.7932L18.5317 26.7907L17.7442 27.7915L18.53 28.4099ZM11.66 37.1399L10.8742 36.5215L10.8737 36.5221L11.66 37.1399ZM9.98 37.2299L9.27289 37.937L9.28826 37.9524L9.30428 37.9671L9.98 37.2299ZM9.89 35.6699L10.6333 36.3389L10.6533 36.3167L10.6719 36.2933L9.89 35.6699ZM17.09 26.6399L17.8719 27.2633L18.3678 26.6413L17.8733 26.0182L17.09 26.6399ZM10.28 18.0599L11.0633 17.4382L11.0425 17.412L11.0199 17.3872L10.28 18.0599ZM10.31 16.4999L9.63426 15.7627L9.61826 15.7774L9.60289 15.7928L10.31 16.4999ZM11.99 16.6199L12.7748 16.0001L12.7709 15.9952L11.99 16.6199ZM18.53 24.8999L17.7453 25.5197L18.5318 26.5155L19.3161 25.518L18.53 24.8999ZM25.04 16.6199L24.2591 15.9952L24.2539 16.0018L25.04 16.6199ZM26.72 16.5299L26.0129 17.237L26.0283 17.2524L26.0443 17.2671L26.72 16.5299ZM26.81 18.0599L26.0667 17.3909L26.0467 17.4132L26.0281 17.4365L26.81 18.0599ZM19.97 26.6399L19.1881 26.0165L18.6921 26.6387L19.1869 27.2617L19.97 26.6399ZM26.4001 36.3426C26.4281 36.3734 26.4353 36.3906 26.4365 36.3938C26.4374 36.396 26.44 36.402 26.44 36.4199H28.44C28.44 35.8748 28.236 35.3888 27.8799 34.9972L26.4001 36.3426ZM26.44 36.4199C26.44 36.4371 26.4384 36.447 26.4376 36.4512C26.4371 36.4534 26.4367 36.4547 26.4366 36.4553C26.4364 36.4558 26.4363 36.4561 26.4362 36.4563C26.4361 36.4564 26.4359 36.457 26.4353 36.458C26.4347 36.459 26.4336 36.4608 26.4316 36.4635C26.4278 36.4687 26.4196 36.4787 26.4043 36.4927L27.7557 37.9671C28.1983 37.5614 28.44 37.0257 28.44 36.4199H26.44ZM26.4043 36.4927C26.3451 36.5469 26.305 36.5599 26.24 36.5599V38.5599C26.815 38.5599 27.3349 38.3529 27.7557 37.9671L26.4043 36.4927ZM26.24 36.5599C26.2315 36.5599 26.2276 36.5593 26.2172 36.5543C26.2033 36.5476 26.1635 36.5248 26.1028 36.4594L24.6372 37.8204C25.0466 38.2612 25.5884 38.5599 26.24 38.5599V36.5599ZM26.1572 36.5232L19.3172 27.7932L17.7428 29.0266L24.5828 37.7566L26.1572 36.5232ZM17.7442 27.7915L10.8742 36.5215L12.4458 37.7583L19.3159 29.0283L17.7442 27.7915ZM10.8737 36.5221C10.8598 36.5398 10.8502 36.5484 10.8462 36.5517C10.8424 36.5548 10.8415 36.5549 10.8428 36.5543C10.8439 36.5538 10.8426 36.5547 10.8363 36.5561C10.8297 36.5575 10.815 36.5599 10.79 36.5599V38.5599C11.4529 38.5599 12.0343 38.2821 12.4463 37.7577L10.8737 36.5221ZM10.79 36.5599C10.7625 36.5599 10.7284 36.5594 10.6557 36.4927L9.30428 37.9671C9.71159 38.3404 10.2175 38.5599 10.79 38.5599V36.5599ZM10.6871 36.5228C10.6411 36.4768 10.6271 36.4487 10.6238 36.4413C10.6215 36.4361 10.62 36.4322 10.62 36.4199H8.62C8.62 37.0208 8.8722 37.5363 9.27289 37.937L10.6871 36.5228ZM10.62 36.4199C10.62 36.3706 10.6272 36.3494 10.6284 36.3461C10.6288 36.3449 10.6291 36.3443 10.6292 36.3441C10.6293 36.3439 10.6293 36.3438 10.6294 36.3438C10.6294 36.3437 10.6296 36.3434 10.6301 36.3427C10.6306 36.342 10.6316 36.3407 10.6333 36.3389L9.14671 35.0009C8.78206 35.4061 8.62 35.9034 8.62 36.4199H10.62ZM10.6719 36.2933L17.8719 27.2633L16.3081 26.0165L9.10812 35.0465L10.6719 36.2933ZM17.8733 26.0182L11.0633 17.4382L9.49673 18.6816L16.3067 27.2616L17.8733 26.0182ZM11.0199 17.3872C10.9889 17.3531 10.98 17.3336 10.98 17.2799H8.98C8.98 17.8262 9.17106 18.3267 9.54006 18.7326L11.0199 17.3872ZM10.98 17.2799C10.98 17.2663 10.9812 17.2585 10.9819 17.2551C10.9825 17.2519 10.9831 17.2505 10.9835 17.2495C10.9839 17.2486 10.9854 17.2451 10.9897 17.2389C10.9941 17.2325 11.0024 17.2217 11.0171 17.207L9.60289 15.7928C9.20312 16.1926 8.98 16.7039 8.98 17.2799H10.98ZM10.9857 17.2371C11.0584 17.1704 11.0925 17.1699 11.12 17.1699V15.1699C10.5475 15.1699 10.0416 15.3894 9.63426 15.7627L10.9857 17.2371ZM11.12 17.1699C11.1309 17.1699 11.1348 17.171 11.134 17.1708C11.133 17.1706 11.1322 17.1702 11.1331 17.1706C11.1336 17.1709 11.1614 17.1849 11.2091 17.2446L12.7709 15.9952C12.369 15.4929 11.8058 15.1699 11.12 15.1699V17.1699ZM11.2053 17.2397L17.7453 25.5197L19.3147 24.2801L12.7747 16.0001L11.2053 17.2397ZM19.3161 25.518L25.8261 17.238L24.2539 16.0018L17.7439 24.2818L19.3161 25.518ZM25.8209 17.2446C25.8686 17.1849 25.8964 17.1709 25.8969 17.1706C25.8978 17.1702 25.897 17.1706 25.896 17.1708C25.8952 17.171 25.8991 17.1699 25.91 17.1699V15.1699C25.2242 15.1699 24.661 15.4929 24.2591 15.9952L25.8209 17.2446ZM25.91 17.1699C25.9223 17.1699 25.9262 17.1714 25.9314 17.1737C25.9388 17.177 25.9669 17.191 26.0129 17.237L27.4271 15.8228C27.0264 15.4221 26.5109 15.1699 25.91 15.1699V17.1699ZM26.0443 17.2671C26.0596 17.2811 26.0678 17.2911 26.0716 17.2964C26.0736 17.299 26.0747 17.3008 26.0753 17.3018C26.0759 17.3028 26.0761 17.3034 26.0762 17.3035C26.0763 17.3037 26.0764 17.304 26.0766 17.3045C26.0767 17.3051 26.0771 17.3064 26.0776 17.3086C26.0784 17.3128 26.08 17.3227 26.08 17.3399H28.08C28.08 16.7341 27.8383 16.1984 27.3957 15.7927L26.0443 17.2671ZM26.08 17.3399C26.08 17.3562 26.0787 17.3665 26.0778 17.3719C26.0773 17.3746 26.0769 17.3764 26.0766 17.3774C26.0763 17.3783 26.0762 17.3788 26.0762 17.3788C26.0762 17.3788 26.0762 17.3787 26.0762 17.3786C26.0763 17.3786 26.0762 17.3788 26.0758 17.3794C26.0752 17.3804 26.0727 17.3843 26.0667 17.3909L27.5533 18.7289C27.9058 18.3372 28.08 17.8559 28.08 17.3399H26.08ZM26.0281 17.4365L19.1881 26.0165L20.7519 27.2633L27.5919 18.6833L26.0281 17.4365ZM19.1869 27.2617L26.3569 36.2917L27.9231 35.0481L20.7531 26.0181L19.1869 27.2617Z" fill="#27AE60"/>
</g>
</g>
<defs>
<filter id="filter0_d" x="0" y="0" width="36.76" height="38.64" filterUnits="userSpaceOnUse" color-interpolation-filters="sRGB">
<feFlood flood-opacity="0" result="BackgroundImageFix"/>
<feColorMatrix in="SourceAlpha" type="matrix" values="0 0 0 0 0 0 0 0 0 0 0 0 0 0 0 0 0 0 127 0"/>
<feOffset dy="4"/>
<feGaussianBlur stdDeviation="2"/>
<feColorMatrix type="matrix" values="0 0 0 0 0 0 0 0 0 0 0 0 0 0 0 0 0 0 0.25 0"/>
<feBlend mode="normal" in2="BackgroundImageFix" result="effect1_dropShadow"/>
<feBlend mode="normal" in="SourceGraphic" in2="effect1_dropShadow" result="shape"/>
</filter>
<filter id="filter1_d" x="4.62" y="15.1699" width="27.82" height="31.39" filterUnits="userSpaceOnUse" color-interpolation-filters="sRGB">
<feFlood flood-opacity="0" result="BackgroundImageFix"/>
<feColorMatrix in="SourceAlpha" type="matrix" values="0 0 0 0 0 0 0 0 0 0 0 0 0 0 0 0 0 0 127 0"/>
<feOffset dy="4"/>
<feGaussianBlur stdDeviation="2"/>
<feColorMatrix type="matrix" values="0 0 0 0 0 0 0 0 0 0 0 0 0 0 0 0 0 0 0.25 0"/>
<feBlend mode="normal" in2="BackgroundImageFix" result="effect1_dropShadow"/>
<feBlend mode="normal" in="SourceGraphic" in2="effect1_dropShadow" result="shape"/>
</filter>
</defs>
</svg>
