<svg width="1056" height="654" viewBox="0 0 1056 654" fill="none" xmlns="http://www.w3.org/2000/svg">
<g id="Group 15">
<g id="undraw_pair_programming_njlp 1" clip-path="url(#clip0)">
<path id="Vector" opacity="0.1" d="M545.655 125.485C479.021 136.156 412.481 131.581 348.471 124.927C284.461 118.273 220.61 109.584 153.949 112.203C111.067 113.884 63.3117 121.936 33.3701 145.341C4.54885 167.851 0.0580781 198.228 0.00206009 225.649C-0.0726306 246.275 1.81331 267.617 17.2369 284.049C27.955 295.446 44.4523 303.613 56.879 314.134C100.116 350.678 86.97 408.219 58.5969 457.143C45.2833 480.095 29.0007 502.668 19.9351 526.161C10.8695 549.653 9.66516 574.827 25.8917 593.984C41.9689 612.982 73.0682 623.688 105.493 629.236C171.352 640.509 244.726 633.51 315.719 624.024C472.841 602.956 628.337 570.111 783.498 537.345C840.907 525.214 898.568 513.029 953.876 495.545C984.593 485.812 1015.87 473.698 1035.71 454.842C1060.92 430.951 1061.55 398.274 1037.26 378.745C996.497 346.006 904.235 353.27 872.706 315.841C855.359 295.233 862.912 267.246 876.721 242.523C906.326 189.503 963.549 137.12 956.136 84.2597C951.019 47.981 911.984 17.9582 859.663 10.1362C804.822 1.94249 734.389 17.4804 702.813 53.9891C670.351 91.6039 604.492 116.034 545.655 125.485Z" fill="#6C63FF"/>
<path id="Vector_2" d="M600.728 317.872H336.108V375.945H600.728V317.872Z" fill="#6C63FF"/>
<path id="Vector_3" opacity="0.1" d="M600.728 317.872H336.108V375.945H600.728V317.872Z" fill="#6C63FF"/>
<path id="Vector_4" d="M367.767 377.855L369.625 532.889L344.175 593.784L342.205 377.855H367.767Z" fill="#BCBEC9"/>
<path id="Vector_5" d="M338.899 329.021L596.535 330.49V373.742H338.899V329.021Z" fill="#4F4F4F"/>
<path id="Vector_6" d="M574.492 377.855L596.535 380.802V591.431L574.492 527.005V377.855Z" fill="#BCBEC9"/>
<path id="Vector_7" d="M729.074 320.199H604.91V570.257H729.074V320.199Z" fill="#EFEFF0"/>
<path id="Vector_8" d="M719.14 327.146H614.844V519.361H719.14V327.146Z" fill="#6C63FF"/>
<path id="Vector_9" opacity="0.1" d="M719.14 327.146H614.844V519.361H719.14V327.146Z" fill="#6C63FF"/>
<path id="Vector_10" d="M719.14 331.083H614.844V373.741H719.14V331.083Z" fill="#6C63FF"/>
<path id="Vector_11" d="M719.14 377.855H614.844V468.464H719.14V377.855Z" fill="#6C63FF"/>
<path id="Vector_12" d="M719.14 474.056H614.844V564.664H719.14V474.056Z" fill="#6C63FF"/>
<g id="Vector_13">
<mask id="path-13-inside-1" fill="white">
<path d="M719.14 474.056H614.844V564.664H719.14V474.056Z"/>
</mask>
<path d="M719.14 474.056H614.844V564.664H719.14V474.056Z" fill="#4F4F4F" stroke="black" stroke-width="2" mask="url(#path-13-inside-1)"/>
</g>
<path id="Vector_14" d="M619.195 586.538C622.907 586.538 625.917 582.893 625.917 578.397C625.917 573.902 622.907 570.257 619.195 570.257C615.482 570.257 612.473 573.902 612.473 578.397C612.473 582.893 615.482 586.538 619.195 586.538Z" fill="#4F4F4F"/>
<path id="Vector_15" d="M712.418 586.927C716.131 586.927 719.14 583.282 719.14 578.786C719.14 574.29 716.131 570.646 712.418 570.646C708.705 570.646 705.696 574.29 705.696 578.786C705.696 583.282 708.705 586.927 712.418 586.927Z" fill="#4F4F4F"/>
<path id="Vector_16" d="M335.174 593.785H344.174L341.7 322.367H328.032L335.174 593.785Z" fill="#EFEFF0"/>
<path id="Vector_17" d="M596.535 320.199V591.431H604.91V322.367L596.535 320.199Z" fill="#EFEFF0"/>
<path id="Vector_18" d="M342.139 371.087V380.803H596.535V373.741L342.139 371.087Z" fill="#EFEFF0"/>
<path id="Vector_19" d="M359.383 301.963H681.898L728.766 316.669V325.199L326.482 322.261V313.581L359.383 301.963Z" fill="white"/>
<path id="Vector_20" d="M326.482 313.58L728.766 316.668V325.198L326.482 322.26V313.58Z" fill="#BCBEC9"/>
<path id="Vector_21" d="M362.922 414.736L361.055 414.471C361.055 414.391 361.055 414.32 361.055 414.25C360.999 413.834 360.933 413.427 360.868 413.011C361.633 413.586 362.362 414.161 363.034 414.736H362.922Z" fill="url(#paint0_linear)"/>
<path id="Vector_22" d="M322.346 551.365C323.56 551.1 324.792 550.879 326.025 550.719C334.489 549.577 343.121 550.782 350.878 554.188C350.094 559.656 349.319 565.311 350.981 570.593C352.138 574.309 354.463 577.672 354.958 581.547C356.205 581.751 357.367 582.279 358.315 583.073C359.264 583.866 359.96 584.895 360.326 586.042C360.684 587.058 360.864 588.122 360.859 589.192C360.848 590.517 360.673 591.836 360.336 593.121C360.222 594.148 359.69 595.093 358.853 595.754C358.017 596.415 356.94 596.74 355.854 596.661C348.628 597.439 341.542 594.74 334.819 592.095L321.749 586.945C320.217 586.343 318.677 585.733 317.211 584.989C314.431 583.566 311.963 581.653 309.938 579.353C309.51 578.942 309.21 578.428 309.07 577.866C308.827 576.309 310.75 575.38 311.973 574.327C312.332 574.006 312.645 573.643 312.907 573.248C314.354 571.177 314.494 568.319 315.363 565.877C317.417 560.081 323.765 556.347 326.006 550.693C326.127 550.383 326.239 550.073 326.333 549.755" fill="#A26565"/>
<path id="Vector_23" opacity="0.1" d="M360.859 589.192C360.848 590.516 360.673 591.835 360.336 593.121C360.222 594.148 359.69 595.092 358.853 595.753C358.017 596.414 356.94 596.739 355.854 596.66C348.628 597.439 341.542 594.74 334.819 592.094L321.749 586.944C320.217 586.343 318.677 585.732 317.211 584.989C314.431 583.565 311.963 581.652 309.938 579.352C309.51 578.942 309.21 578.428 309.07 577.866C308.827 576.309 310.75 575.38 311.973 574.327C312.332 574.006 312.645 573.643 312.907 573.247C316.511 573.981 320.983 576.132 323.737 576.963C326.496 577.675 329.145 578.725 331.617 580.087C335.053 582.175 337.527 585.396 340.44 588.051C343.353 590.705 347.115 593.121 351.177 592.793C353.324 592.487 355.394 591.809 357.283 590.794L360.859 589.192Z" fill="#6C63FF"/>
<path id="Vector_24" d="M345.556 463.447C345.799 464.25 345.777 465.104 345.494 465.895C345.21 466.685 344.678 467.375 343.969 467.871C342.746 468.588 341.168 468.491 339.954 469.269C338.451 470.269 338.237 472.251 337.975 473.968C337.042 479.87 333.951 485.223 331.309 490.647C328.667 496.071 326.435 501.991 327.406 507.884C328.069 511.884 330.142 516.149 328.2 519.75C327.724 520.635 327.014 521.422 326.473 522.281C323.812 526.492 325.324 531.828 325.222 536.73C325.261 537.274 325.134 537.818 324.858 538.296C324.449 538.748 323.947 539.116 323.382 539.376C322.435 540.036 321.656 540.891 321.105 541.876C320.554 542.861 320.244 543.951 320.199 545.065C320.12 547.293 320.404 549.52 321.039 551.666C321.142 552.533 321.546 553.342 322.187 553.967C322.931 554.433 323.808 554.668 324.699 554.639C330.564 555.09 336.318 556.416 341.747 558.568C345.286 559.966 348.721 561.718 352.484 562.391C352.848 562.498 353.231 562.533 353.61 562.495C353.988 562.457 354.355 562.346 354.687 562.169C355.16 561.765 355.487 561.229 355.621 560.639C357.068 556.126 358.534 551.472 358.039 546.782C357.824 544.764 357.255 542.791 357.105 540.774C356.452 532.81 362.138 525.625 363.939 517.768C364.752 514.228 364.752 510.565 365.331 506.99C366.899 497.195 372.594 488.409 374.788 478.72C375.094 476.913 375.569 475.137 376.207 473.411C377.841 469.659 381.622 466.615 381.707 462.553C381.758 461.66 381.51 460.774 380.997 460.023C380.117 459.107 378.947 458.486 377.664 458.253C372.592 456.931 367.429 455.943 362.212 455.298C359.821 454.853 357.381 454.692 354.949 454.82C351.789 455.172 348.753 456.188 346.06 457.793C342.457 459.899 344.772 460.403 345.556 463.447Z" fill="#454B69"/>
<path id="Vector_25" opacity="0.05" d="M345.556 463.447C345.799 464.25 345.777 465.104 345.494 465.895C345.21 466.685 344.678 467.375 343.969 467.871C342.746 468.588 341.168 468.491 339.954 469.269C338.451 470.269 338.237 472.251 337.975 473.968C337.042 479.87 333.951 485.223 331.309 490.647C328.667 496.071 326.435 501.991 327.406 507.884C328.069 511.884 330.142 516.149 328.2 519.75C327.724 520.635 327.014 521.422 326.473 522.281C323.812 526.492 325.324 531.828 325.222 536.73C325.261 537.274 325.134 537.818 324.858 538.296C324.449 538.748 323.947 539.116 323.382 539.376C322.435 540.036 321.656 540.891 321.105 541.876C320.554 542.861 320.244 543.951 320.199 545.065C320.12 547.293 320.404 549.52 321.039 551.666C321.142 552.533 321.546 553.342 322.187 553.967C322.931 554.433 323.808 554.668 324.699 554.639C330.564 555.09 336.318 556.416 341.747 558.568C345.286 559.966 348.721 561.718 352.484 562.391C352.848 562.498 353.231 562.533 353.61 562.495C353.988 562.457 354.355 562.346 354.687 562.169C355.16 561.765 355.487 561.229 355.621 560.639C357.068 556.126 358.534 551.472 358.039 546.782C357.824 544.764 357.255 542.791 357.105 540.774C356.452 532.81 362.138 525.625 363.939 517.768C364.752 514.228 364.752 510.565 365.331 506.99C366.899 497.195 372.594 488.409 374.788 478.72C375.094 476.913 375.569 475.137 376.207 473.411C377.841 469.659 381.622 466.615 381.707 462.553C381.758 461.66 381.51 460.774 380.997 460.023C380.117 459.107 378.947 458.486 377.664 458.253C372.592 456.931 367.429 455.943 362.212 455.298C359.821 454.853 357.381 454.692 354.949 454.82C351.789 455.172 348.753 456.188 346.06 457.793C342.457 459.899 344.772 460.403 345.556 463.447Z" fill="#6C63FF"/>
<path id="Vector_26" d="M327.285 596.802H319.321L314.111 495.363L313.747 489.594L320.516 487.338L320.974 493.47L327.285 596.802Z" fill="#4F4F4F"/>
<path id="Vector_27" opacity="0.1" d="M320.974 493.47L314.111 495.363L313.747 489.594L320.516 487.338L320.974 493.47Z" fill="#6C63FF"/>
<path id="Vector_28" d="M427.212 618.259L414.076 619.764L353.557 489.594L337.238 488.461L308.575 496.39L303.001 651.37H289.865L295.037 490.727L263.583 491.488L207.453 623.913H195.512L254.546 469.145L256.824 463.181L344.8 460.323L366.731 471.977L367.011 472.649L427.212 618.259Z" fill="#4F4F4F"/>
<path id="Vector_29" opacity="0.1" d="M367.011 472.649C348.105 478.047 328.48 483.94 328.48 483.94C328.48 483.94 310.582 489.859 303.001 483.94C302.045 483.233 300.977 482.674 299.836 482.285C300.82 482.951 301.882 483.506 303.001 483.94L254.546 469.136L256.814 463.181L344.8 460.323L366.731 471.977L367.011 472.649Z" fill="#6C63FF"/>
<path id="Vector_30" d="M277.522 446.962L313.346 439.414C313.346 439.414 398.941 454.509 405.309 460.544C405.309 460.544 336.836 473.746 329.274 478.241C321.711 482.736 276.719 487.709 277.522 446.962Z" fill="white"/>
<path id="Vector_31" d="M262.117 362.114C259.317 370.529 251.67 378.112 242.362 378.475C241.684 378.55 240.999 378.433 240.392 378.139C239.225 377.449 239.197 375.829 239.673 374.6C240.149 373.37 240.98 372.264 241.111 370.972C241.139 370.708 241.12 370.442 241.055 370.184C240.812 369.131 239.906 368.193 238.842 368.414C239.567 367.865 240.049 367.079 240.196 366.21C240.343 365.342 240.143 364.453 239.636 363.716C239.213 363.264 238.832 362.778 238.497 362.265C237.722 360.761 238.926 359.071 239.43 357.46C240.467 353.921 237.834 350.381 237.619 346.692C237.432 343.391 239.197 340.285 239.636 337.011C240.336 331.702 237.554 326.614 237.227 321.314C237.003 317.615 237.964 313.952 239.038 310.386C239.972 307.201 241.027 303.98 241.092 300.653C241.092 298.237 240.653 295.848 240.532 293.442C240.338 291.241 240.76 289.032 241.755 287.035C242.401 285.861 243.502 284.97 244.827 284.549C247.889 283.575 249.896 285.089 250.344 287.84C251.091 292.521 250.662 297.299 251.642 301.998C252.548 306.392 253.922 310.688 255.741 314.819C257.393 318.553 259.401 322.164 260.67 326.03C261.626 329.218 262.31 332.473 262.715 335.764C263.966 344.603 264.946 353.7 262.117 362.114Z" fill="#6C63FF"/>
<path id="Vector_32" d="M474.762 576.282C473.581 577.86 472.061 579.183 470.302 580.165C468.544 581.147 466.586 581.766 464.557 581.981C460.505 582.458 456.294 581.494 452.364 582.547C451.755 582.642 451.181 582.878 450.692 583.235C450.203 583.592 449.815 584.057 449.563 584.591C449.466 585.31 449.406 586.034 449.386 586.759C448.928 589.121 445.651 589.652 443.102 589.635L432.589 589.573C430.405 589.573 427.987 589.458 426.418 588.024C425.672 587.241 425.252 586.228 425.235 585.174C425.217 584.119 425.605 583.095 426.325 582.29C426.651 581.924 427.051 581.623 427.501 581.405C426.845 581.2 426.262 580.825 425.816 580.324C425.371 579.822 425.082 579.213 424.98 578.565C424.789 577.264 424.856 575.941 425.176 574.663C425.176 570.964 426.11 564.77 428.855 561.877C432.225 558.276 438.07 553.621 443.158 552.657C444.876 552.345 446.648 552.418 448.331 552.871C450.014 553.325 451.561 554.145 452.849 555.267C455.258 557.391 457.013 560.718 460.318 561.089C462.12 561.302 463.857 560.497 465.64 560.205C467.667 559.957 469.725 560.31 471.531 561.215C473.338 562.119 474.806 563.531 475.733 565.257C476.185 566.132 476.5 567.065 476.666 568.027C477.16 570.908 476.479 573.859 474.762 576.282Z" fill="#A26565"/>
<path id="Vector_33" opacity="0.1" d="M474.762 576.282C473.581 577.86 472.061 579.183 470.302 580.165C468.544 581.147 466.586 581.766 464.557 581.98C460.505 582.458 456.294 581.494 452.364 582.547C451.755 582.642 451.181 582.878 450.692 583.235C450.203 583.591 449.815 584.057 449.563 584.591C449.466 585.31 449.406 586.034 449.386 586.759C448.928 589.121 445.651 589.652 443.102 589.634L432.59 589.572C430.405 589.572 427.987 589.457 426.418 588.024C425.672 587.241 425.252 586.228 425.235 585.174C425.218 584.119 425.605 583.094 426.325 582.29C432.393 582.051 438.359 582.29 444.409 581.104C446.865 580.635 449.283 580.016 451.766 579.689C457.144 578.963 462.867 579.582 467.806 577.423C471.924 575.654 474.874 572.052 476.62 568.035C477.124 570.908 476.46 573.855 474.762 576.282V576.282Z" fill="#6C63FF"/>
<path id="Vector_34" d="M447.024 562.293C443.289 565.036 438.91 567.177 434.205 567.407C429.499 567.637 424.504 565.638 422.198 561.762C418.828 556.072 421.815 548.162 417.689 542.941C416.4 541.304 414.542 540.145 413.179 538.561C411.816 536.977 411.032 534.597 412.246 532.916C410.78 533.447 409.23 532.102 408.801 530.668C408.371 529.235 408.642 527.695 408.38 526.244C407.699 522.395 403.712 519.926 401.798 516.511C399.884 513.095 400.146 508.662 399.931 504.619C399.454 494.766 395.584 485.334 388.914 477.764C387.644 476.33 386.02 474.87 384.041 474.941C384.386 471.702 382.108 468.605 379.158 466.977C376.207 465.349 372.697 464.801 369.28 464.482C334.801 461.261 298.875 473.41 265.955 463.19C256.796 460.35 247.964 455.598 242.362 448.148C240.18 445.312 238.619 442.092 237.77 438.675C236.922 435.259 236.804 431.717 237.423 428.256V428.133C238.721 421.85 242.222 420.302 248.02 417.435C254.713 414.081 261.709 411.3 268.924 409.126C282.928 404.976 298.006 403.481 312.459 406.525C319.209 407.958 325.717 410.329 332.476 411.719C335.137 412.267 337.816 412.657 340.515 412.984C344.707 413.479 348.917 413.807 353.137 414.267C366.631 415.74 379.92 418.572 392.779 422.717C397.569 424.257 402.358 426.018 406.476 428.805C409.733 431.047 412.486 433.88 414.576 437.14C416.666 440.4 418.051 444.022 418.65 447.794C419.043 450.395 419.052 453.103 419.649 455.625C420.216 457.744 420.965 459.816 421.89 461.819C429.868 480.512 436.386 499.735 441.394 519.334C441.678 520.789 442.204 522.193 442.953 523.492C444.148 525.324 446.202 526.554 447.406 528.386C450.207 532.704 447.509 538.729 449.992 543.224C450.851 544.782 452.28 546.012 453.139 547.569C455.94 552.675 451.804 558.78 447.024 562.293Z" fill="#454B69"/>
<path id="Vector_35" opacity="0.1" d="M399.315 460.624C400.642 459.628 401.787 458.433 402.704 457.084C403.624 455.729 403.989 454.102 403.731 452.51C404.095 454.524 403.956 456.592 403.325 458.546C402.695 460.501 401.59 462.288 400.099 463.765C397.756 466.039 393.358 468.269 389.932 467.49C390.417 464.889 397.139 462.376 399.315 460.624Z" fill="#6C63FF"/>
<path id="Vector_36" opacity="0.1" d="M340.981 416.523C340.7 417.472 340.173 418.339 339.449 419.046C338.726 419.754 337.828 420.279 336.836 420.576C334.845 421.153 332.761 421.383 330.683 421.257H328.816C304.318 420.744 279.558 415.594 255.629 420.505C252.745 421.069 249.915 421.859 247.17 422.868C243.672 424.174 240.397 425.963 237.451 428.177V428.053C238.749 421.77 242.25 420.222 248.048 417.355C254.735 414.03 261.721 411.276 268.924 409.126C282.928 404.976 298.006 403.481 312.459 406.525C319.209 407.958 325.717 410.329 332.476 411.719C335.137 412.267 337.816 412.657 340.515 412.984C341.038 414.094 341.2 415.326 340.981 416.523V416.523Z" fill="#6C63FF"/>
<path id="Vector_37" d="M340.981 415.258C340.702 416.209 340.176 417.078 339.452 417.787C338.728 418.497 337.829 419.023 336.836 419.32C334.846 419.898 332.76 420.126 330.683 419.992H328.816C304.318 419.479 279.558 414.329 255.629 419.24C252.746 419.805 249.917 420.592 247.17 421.594C243.507 422.978 240.09 424.888 237.04 427.257C236.324 425.393 235.612 423.526 234.902 421.656C234.043 419.426 236.769 418.931 237.292 416.931C237.638 415.577 237.049 414.037 236.751 412.595C236.674 412.242 236.624 411.884 236.601 411.524C236.433 408.33 237.638 406.49 240.401 404.764C248.598 399.632 258.598 396.11 267.953 393.465C272.926 391.975 278.064 391.03 283.264 390.651C290.621 390.244 297.969 391.536 305.13 393.173C313.934 395.234 322.645 397.96 330.45 402.322C334.278 404.437 338.012 407.091 340.076 410.861C340.899 412.185 341.219 413.738 340.981 415.258Z" fill="#A26565"/>
<path id="Vector_38" opacity="0.1" d="M262.117 362.114C259.317 370.529 251.67 378.112 242.362 378.475C241.684 378.55 240.999 378.433 240.392 378.139C239.225 377.448 239.197 375.829 239.673 374.599C240.149 373.369 240.98 372.263 241.111 370.971C241.139 370.708 241.12 370.441 241.055 370.184C245.994 363.583 250.783 356.911 252.678 349.098C253.062 347.753 253.179 346.351 253.024 344.966C252.772 343.373 251.922 341.931 251.455 340.391C250.634 337.666 251.017 334.781 251.25 331.958C252.222 319.529 250.032 307.061 244.864 295.6C243.604 292.839 242.166 290.043 241.727 287.097C242.373 285.923 243.474 285.032 244.799 284.61C247.861 283.637 249.868 285.15 250.316 287.902C251.063 292.583 250.634 297.361 251.614 302.059C252.52 306.453 253.894 310.749 255.713 314.881C257.365 318.615 259.373 322.225 260.642 326.092C261.598 329.279 262.282 332.534 262.687 335.825C263.966 344.603 264.946 353.699 262.117 362.114Z" fill="#6C63FF"/>
<path id="Vector_39" opacity="0.1" d="M340.981 415.258C340.702 416.208 340.176 417.077 339.452 417.787C338.728 418.496 337.829 419.023 336.836 419.319C334.846 419.897 332.76 420.125 330.683 419.992H328.816C320.841 414.972 311.254 412.778 301.741 413.798C298.697 414.143 295.654 414.815 292.61 414.55C286.457 414.019 281.472 409.825 275.991 407.144C269.755 404.225 262.741 403.139 255.849 404.025C248.957 404.911 242.501 407.729 237.311 412.116L236.779 412.559C236.702 412.206 236.652 411.848 236.629 411.488C236.461 408.294 237.666 406.453 240.429 404.728C248.626 399.596 258.626 396.074 267.981 393.429C272.954 391.938 278.092 390.994 283.292 390.615C290.649 390.208 297.997 391.5 305.158 393.137C313.962 395.198 322.673 397.924 330.478 402.286C334.278 404.436 338.012 407.091 340.076 410.86C340.899 412.185 341.219 413.737 340.981 415.258Z" fill="#6C63FF"/>
<path id="Vector_40" d="M361.923 318.332L361.792 318.651C359.701 323.792 355.854 328.136 353.389 333.145C350.28 339.489 349.515 346.603 348.824 353.576C348.226 359.549 347.638 365.557 348.114 371.547C349.309 386.306 356.919 400.305 358.954 414.781C359.455 418.124 359.584 421.508 359.337 424.877C359.169 427.009 358.758 429.301 357.264 430.876C355.77 432.451 352.867 433.07 351.261 431.557C351.98 430.257 352.708 428.965 353.436 427.664C349.169 424.523 342.746 426.779 337.76 424.815C335.566 423.93 333.811 422.337 331.972 420.913C327.774 417.678 322.937 415.271 317.743 413.834C312.55 412.396 307.106 411.957 301.731 412.542C298.688 412.896 295.644 413.568 292.601 413.303C286.448 412.763 281.462 408.578 275.982 405.897C269.746 402.98 262.733 401.894 255.841 402.778C248.95 403.662 242.494 406.477 237.301 410.861C235.994 412.011 234.239 413.356 232.633 412.63C232.013 412.27 231.511 411.752 231.186 411.135C225.071 401.234 229.571 388.465 236.106 378.82C242.642 369.176 251.297 360.283 253.985 349.107C254.374 347.763 254.491 346.361 254.331 344.975C254.079 343.382 253.229 341.94 252.762 340.4C251.941 337.675 252.324 334.791 252.557 331.968C253.537 319.537 251.353 307.065 246.19 295.601C244.696 292.3 242.922 288.956 242.922 285.372C242.922 279.727 247.189 275.046 250.718 270.507C254.779 265.286 258.187 259.508 263.331 255.216C268.205 251.137 275.263 248.642 281.294 250.712C291.543 248.354 302.091 247.38 312.627 247.819C316.268 247.978 320.031 248.341 323.224 250.013C326.641 251.783 329.096 254.933 332.457 256.818C334.913 258.207 337.742 258.862 340.412 259.835C347.785 262.564 353.872 267.723 357.553 274.364C361.288 281.222 362.222 289.106 363.043 296.786C363.827 304.016 364.574 311.528 361.923 318.332Z" fill="#6C63FF"/>
<path id="Vector_41" opacity="0.1" d="M348.114 371.547C349.309 386.306 356.919 400.304 358.954 414.78C354.883 411.515 349.216 408.232 348.46 404.436C347.62 400.331 344.931 394.951 344.483 390.801C344.034 386.651 347.106 381.581 343.885 378.732C342.317 377.343 346.49 377.732 344.959 376.307C341.514 373.131 340.664 368.237 340.449 363.698C340.085 355.664 341.159 347.541 339.6 339.639C338.666 334.764 336.715 330.118 335.156 325.384C333.344 319.872 332.037 314.226 330.73 308.572C329.444 303.545 328.508 298.443 327.929 293.3C327.528 288.876 327.715 284.186 329.797 280.151C331.879 276.116 336.089 272.842 340.813 272.904C356.61 273.099 353.884 293.397 357.357 302.777C358.748 306.511 360.625 310.121 361.381 314.014C361.657 315.54 361.807 317.085 361.829 318.633C359.738 323.774 355.892 328.119 353.427 333.127C350.318 339.471 349.552 346.585 348.861 353.558C348.226 359.548 347.638 365.556 348.114 371.547Z" fill="#6C63FF"/>
<path id="Vector_42" d="M358.384 302.546C359.775 306.28 361.652 309.891 362.408 313.784C363.669 320.305 361.717 327.234 363.837 333.551C364.388 334.9 364.85 336.28 365.219 337.684C365.583 339.692 365.163 341.745 365.163 343.789C365.163 347.081 366.255 350.266 367.226 353.425C370.509 364.16 372.683 375.172 373.715 386.306C373.869 389.298 374.367 392.265 375.199 395.154C375.591 396.134 375.928 397.132 376.207 398.145C376.458 399.497 376.518 400.875 376.385 402.242C376.133 406.578 375.619 410.931 376.133 415.249C376.646 419.567 378.308 423.947 381.735 426.841C378.672 427.469 375.433 428.097 372.445 427.168C368.244 425.867 365.723 421.859 363.585 418.213C360.877 413.559 350.589 409.365 349.524 404.136C348.693 400.039 346.004 394.659 345.556 390.5C345.108 386.341 348.17 381.289 344.949 378.44C343.39 377.05 347.564 377.431 346.023 376.015C342.587 372.839 341.738 367.945 341.523 363.397C341.159 355.372 342.223 347.249 340.673 339.347C339.74 334.472 337.788 329.826 336.229 325.083C334.418 319.58 333.111 313.934 331.804 308.271C330.514 303.245 329.578 298.143 329.003 292.999C328.601 288.575 328.779 283.876 330.87 279.841C332.962 275.806 337.172 272.541 341.887 272.594C357.619 272.86 354.911 293.167 358.384 302.546Z" fill="#6C63FF"/>
<path id="Vector_43" opacity="0.1" d="M313.365 306.006C314.84 307.643 316.735 309.439 318.966 309.121C318.797 309.375 318.529 309.557 318.22 309.626C317.911 309.696 317.586 309.648 317.314 309.492C316.778 309.156 316.349 308.688 316.072 308.138L312.879 303.033C312.459 302.369 309.565 298.503 308.855 300.732C308.575 301.679 312.646 305.21 313.365 306.006Z" fill="#6C63FF"/>
<path id="Vector_44" opacity="0.1" d="M311.647 318.739C311.555 317.071 310.813 315.494 309.565 314.315C308.442 313.35 307.133 312.602 305.709 312.111C302.208 310.749 298.062 309.651 294.262 309.828C295.644 311.74 300.079 312.881 302.301 313.961C305.451 315.5 308.566 317.093 311.647 318.739Z" fill="#6C63FF"/>
<path id="Vector_45" opacity="0.1" d="M321.59 354.983C320.946 359.513 317.034 362.946 313.075 365.601C309.117 368.255 304.672 370.538 302.086 374.379C300.294 377.033 299.491 380.112 297.969 382.882C296.288 385.935 293.777 388.501 291.77 391.368C289.762 394.235 288.194 397.659 288.81 401.057C288.819 401.213 288.862 401.366 288.935 401.506C289.009 401.646 289.113 401.77 289.24 401.871C289.432 401.948 289.642 401.977 289.849 401.955C290.057 401.933 290.255 401.862 290.425 401.747C294.496 399.729 296.102 395.119 297.81 391.129C299.604 387.101 301.623 383.166 303.86 379.343C304.869 377.573 305.98 375.644 307.856 374.662C309.141 374.154 310.457 373.72 311.796 373.361C313.696 372.535 315.363 371.295 316.66 369.742C321.757 363.979 324.418 356.631 324.129 349.116C324.073 347.532 323.98 339.905 321.469 342.259C318.957 344.612 322.019 351.904 321.59 354.983Z" fill="#6C63FF"/>
<path id="Vector_46" d="M327.743 181.225C335.772 184.543 342.681 191.843 342.429 200.117C342.214 208.806 334.539 216.991 337.182 225.317C338.713 230.148 343.325 233.387 346.975 237.059C360.877 251.004 360.849 275.346 346.901 289.265C341.56 294.574 334.698 298.352 329.05 303.422C309.135 321.208 308.286 351.974 318.948 375.856C310.778 377.53 302.452 378.42 294.094 378.51C290.182 378.51 285.393 377.882 283.974 374.422C282.667 371.228 284.907 366.91 282.331 364.548C281.117 363.442 279.296 363.291 277.662 363.034C267.15 361.424 258.523 353.469 254.583 344.099C250.643 334.728 250.848 324.181 253.108 314.324C254.714 307.201 257.225 299.361 253.5 292.99C248.832 284.973 235.406 281.593 235.612 272.426C235.78 264.914 245.125 261.26 250.428 255.676C260.213 245.394 255.554 229.44 255.535 215.584C255.535 203.391 260.035 190.808 269.615 182.685C283.862 170.501 311.301 174.456 327.743 181.225Z" fill="#A26565"/>
<g id="Group" opacity="0.1">
<path id="Vector_47" opacity="0.1" d="M255.031 283.903C250.933 276.895 240.168 273.426 237.666 266.533C236.414 268.142 235.71 270.074 235.649 272.072C235.444 281.239 248.851 284.619 253.537 292.645C255.076 295.486 255.724 298.686 255.405 301.865C256.88 295.707 258.178 289.283 255.031 283.903Z" fill="#6C63FF"/>
<path id="Vector_48" opacity="0.1" d="M338.255 213.974C339.936 209.328 342.373 204.639 342.494 199.816C342.511 199.294 342.495 198.771 342.447 198.25C340.571 203.577 337.695 208.744 338.255 213.974Z" fill="#6C63FF"/>
<path id="Vector_49" opacity="0.1" d="M256.637 238.723C259.849 229.105 257.076 217.177 257.066 206.506C257.066 205.214 257.123 203.913 257.225 202.621C256.119 206.745 255.561 210.984 255.563 215.239C255.582 222.857 256.992 231.122 256.637 238.723Z" fill="#6C63FF"/>
<path id="Vector_50" opacity="0.1" d="M348.46 280.213C343.119 285.522 336.257 289.301 330.609 294.371C320.526 303.37 315.344 315.696 314.046 328.765C316.455 319.032 321.319 310.068 329.115 303.104C334.717 298.061 341.626 294.3 346.966 288.947C353.318 282.386 357.007 273.901 357.376 265.003C355.764 270.689 352.702 275.912 348.46 280.213V280.213Z" fill="#6C63FF"/>
<path id="Vector_51" opacity="0.1" d="M295.654 369.432C291.742 369.432 286.952 368.795 285.533 365.335C284.226 362.15 286.467 357.832 283.89 355.46C282.676 354.354 280.846 354.204 279.222 353.947C268.718 352.345 260.092 344.382 256.152 335.02C253.248 328.101 252.622 320.553 253.351 313.103C253.276 313.395 253.211 313.687 253.145 313.987C250.923 323.845 250.69 334.401 254.62 343.771C258.551 353.142 267.187 361.097 277.69 362.698C279.352 362.955 281.182 363.114 282.359 364.211C284.963 366.583 282.695 370.901 284.002 374.086C285.421 377.546 290.21 378.227 294.122 378.183C302.48 378.092 310.806 377.202 318.976 375.528C317.823 372.947 316.817 370.309 315.96 367.627C309.255 368.756 302.463 369.36 295.654 369.432V369.432Z" fill="#6C63FF"/>
</g>
<path id="Vector_52" opacity="0.1" d="M326.23 330.843C328.536 332.489 331.038 326.216 329.61 324.649C329.227 325.056 325.875 330.613 326.23 330.843Z" fill="#6C63FF"/>
<path id="Vector_53" opacity="0.1" d="M336.061 444.405C338.778 443.52 341.663 442.635 343.437 440.511C344.903 438.804 346.107 432.026 343.007 435.273C340.375 438.06 339.133 441.732 336.061 444.405Z" fill="#6C63FF"/>
<path id="Vector_54" opacity="0.1" d="M363.725 437.3C363.398 439.388 362.791 441.556 361.232 443.06C360.943 443.343 360.298 443.52 360.214 443.14C361.956 442.261 363.574 441.179 365.032 439.919C368.188 436.955 368.617 429.655 363.809 427.717C363.762 430.92 364.238 434.043 363.725 437.3Z" fill="#6C63FF"/>
<path id="Vector_55" d="M396.934 424.142C396.934 424.142 370.438 414.276 360.858 415.293C351.279 416.311 371.707 430.619 371.707 430.619L383.919 438.423C383.919 438.423 391.388 435.769 391.883 435.565C392.378 435.362 396.934 424.142 396.934 424.142Z" fill="#454B69"/>
<path id="Vector_56" d="M214.624 318.297C214.624 318.297 234.529 307.36 260.801 320.952C287.073 334.543 291.452 414.524 291.452 414.524C291.452 414.524 280.706 496.009 322.141 477.879C322.141 477.879 397.765 455.625 405.337 460.527C405.337 460.527 412.507 460.527 398.176 463.544C383.845 466.562 328.48 483.188 328.48 483.188C328.48 483.188 310.582 489.116 303.001 483.188C295.42 477.26 273.937 483.949 271.146 443.193C269.298 417.51 265.976 391.941 261.193 366.601L253.808 345.851L214.624 318.297Z" fill="#4F4F4F"/>
<path id="Vector_57" d="M212.233 444.316C212.233 444.316 220.991 361.689 206.632 331.879C194.14 305.9 242.446 318.049 255.05 321.588C257 322.141 258.702 323.293 259.886 324.862C267.355 334.817 294.15 374.714 286.252 428.097C286.252 428.097 283.068 475.64 302.973 483.179L241.643 464.455C236.667 462.933 231.616 461.668 226.518 460.571C220.02 459.173 209.433 455.2 212.233 444.316Z" fill="white"/>
<path id="Vector_58" d="M648.436 598.572H656.4L661.619 497.133L661.974 491.364L655.205 489.107L654.757 495.239L648.436 598.572Z" fill="#4F4F4F"/>
<path id="Vector_59" opacity="0.1" d="M654.757 495.239L661.619 497.133L661.974 491.364L655.205 489.107L654.757 495.239Z" fill="#6C63FF"/>
<path id="Vector_60" d="M581.943 559.399C581.747 560.789 581.371 562.15 580.822 563.452C580.256 565.152 579.041 566.591 577.415 567.487C576.322 567.915 575.152 568.134 573.97 568.133C569.572 568.381 564.923 568.319 561.141 566.195C559.531 565.211 558.054 564.043 556.744 562.718C548.247 554.716 540.523 546.01 533.665 536.703C532.516 535.137 531.331 533.288 531.844 531.394C540.728 529.059 549.165 525.4 556.837 520.555C557.896 519.785 559.082 519.187 560.348 518.785C562.514 518.346 564.745 518.268 566.939 518.555C569.059 518.882 569.152 518.944 569.964 521.21C571.309 525.041 571.085 529.173 572.597 533.005C573.557 535.122 574.726 537.148 576.089 539.057C579.991 545.242 582.988 552.542 581.943 559.399Z" fill="#A26565"/>
<path id="Vector_61" opacity="0.1" d="M581.943 559.4C581.747 560.789 581.371 562.15 580.822 563.452C580.256 565.152 579.041 566.591 577.415 567.487C576.322 567.915 575.151 568.134 573.969 568.133C569.572 568.381 564.923 568.319 561.141 566.195C559.531 565.212 558.054 564.044 556.744 562.718C548.247 554.717 540.523 546.01 533.665 536.703C532.516 535.137 531.331 533.288 531.844 531.394C534.742 530.633 537.597 529.729 540.396 528.687L540.536 528.784C543.402 530.722 545.484 533.5 547.51 536.225L554.046 544.941C555.211 546.653 556.587 548.227 558.144 549.631C560.076 551.1 562.208 552.314 564.484 553.241C567.555 554.648 570.627 556.055 573.82 557.187C575.883 557.975 579.375 558.285 581.943 559.4Z" fill="#6C63FF"/>
<path id="Vector_62" d="M587.974 464.907C587.331 466.377 586.549 467.79 585.64 469.128C576.962 482.938 570.268 497.784 565.735 513.273C564.446 512.998 563.718 514.662 563.728 515.927C563.737 517.192 563.728 518.785 562.495 519.245C562.131 519.378 561.72 519.378 561.365 519.528C560.581 519.865 560.357 520.811 560.245 521.625L559.143 529.288C558.761 531.943 558.424 534.819 559.797 537.163C560.744 538.557 561.972 539.76 563.41 540.703L581.635 554.329C582.382 554.887 583.306 555.48 584.202 555.17C586.247 554.462 584.436 550.993 586.069 549.587C587.152 548.622 588.87 549.348 590.373 549.233C592.334 549.091 593.819 547.383 594.313 545.587C594.661 543.758 594.695 541.888 594.416 540.048C594.293 539.209 594.396 538.353 594.715 537.562C595.272 536.723 596.038 536.027 596.946 535.535C600.108 533.347 602.656 530.457 604.367 527.119C606.078 523.78 606.899 520.096 606.759 516.387C606.61 515.258 606.655 514.114 606.889 512.998C607.269 511.977 607.842 511.029 608.579 510.202C615.199 501.716 620.717 492.505 626.197 483.312C629.353 478.003 632.564 472.614 633.666 466.632C633.762 466.41 633.801 466.169 633.782 465.93C633.762 465.69 633.684 465.458 633.554 465.252C633.423 465.046 633.244 464.872 633.03 464.743C632.816 464.614 632.574 464.534 632.322 464.509C629.588 463.7 626.799 463.067 623.975 462.615C615.395 460.969 607.113 458.43 598.767 455.988C590.42 453.545 590.485 458.518 587.974 464.907Z" fill="#454B69"/>
<path id="Vector_63" d="M548.509 620.029L561.655 621.533L622.164 491.363L638.484 490.231L667.156 498.159L672.72 653.14H685.856L680.684 492.496L712.138 493.257L768.268 625.683H780.209L721.176 470.915L718.907 464.951L630.921 462.093L608.99 473.746L608.71 474.419L548.509 620.029Z" fill="#4F4F4F"/>
<path id="Vector_64" opacity="0.1" d="M608.71 474.419C627.616 479.816 647.241 485.709 647.241 485.709C647.241 485.709 665.139 491.629 672.72 485.709C673.676 485.002 674.744 484.444 675.885 484.055C674.901 484.721 673.839 485.276 672.72 485.709L721.175 470.906L718.935 464.951L630.949 462.093L609.018 473.746L608.71 474.419Z" fill="#6C63FF"/>
<path id="Vector_65" d="M698.199 448.732L662.375 441.185C662.375 441.185 576.78 456.28 570.412 462.315C570.412 462.315 638.885 475.517 646.447 480.012C654.01 484.507 699.002 489.479 698.199 448.732Z" fill="white"/>
<path id="Vector_66" d="M565.268 570.026C563.111 573.919 557.799 575.017 553.131 575.079C546.65 575.155 540.212 574.065 534.159 571.867C530.705 570.61 527.391 568.991 523.824 568.071C518.512 566.69 512.621 566.805 507.952 564.036C505.477 562.471 503.431 560.369 501.986 557.904C501.716 557.47 501.454 557.019 501.212 556.559C498.98 552.444 497.944 547.657 499.186 543.215C500.427 538.773 504.937 533.88 510.165 533.951C516.374 534.039 523.777 536.827 529.771 538.269C537.24 540.039 544.71 542.083 551.31 545.826C556.837 548.976 561.72 553.497 564.325 559.019C564.826 560.084 565.238 561.184 565.558 562.31C566.37 564.859 566.556 567.699 565.268 570.026Z" fill="#A26565"/>
<path id="Vector_67" opacity="0.1" d="M565.268 570.026C563.111 573.919 557.799 575.016 553.131 575.078C546.65 575.154 540.212 574.064 534.159 571.866C530.705 570.61 527.391 568.991 523.824 568.07C518.512 566.69 512.621 566.805 507.952 564.036C505.477 562.471 503.431 560.369 501.986 557.904C501.716 557.47 501.454 557.019 501.212 556.559C502.145 556.629 503.004 556.718 503.471 556.762C509.203 557.284 514.675 559.266 520.146 560.762C527.741 562.841 535.584 564 543.486 564.213C549.088 564.363 554.933 563.974 559.825 561.381C561.286 560.508 562.801 559.719 564.362 559.018C564.863 560.084 565.275 561.184 565.595 562.31C566.37 564.858 566.556 567.699 565.268 570.026Z" fill="#6C63FF"/>
<path id="Vector_68" d="M605.386 401.782C593.249 399.898 580.888 399.438 568.583 398.977L553.532 398.411C552.462 398.294 551.377 398.418 550.367 398.774C549.497 399.304 548.67 399.896 547.893 400.544C546.381 401.517 544.448 401.623 542.627 401.72C529.713 402.395 516.868 403.974 504.199 406.446C497.664 407.711 490.876 409.366 485.965 413.639C480.774 418.161 478.496 425.054 478.319 431.726C478.141 438.397 479.99 444.954 481.941 451.36C484.425 459.072 485.798 467.067 486.021 475.127C485.934 477.363 486.024 479.602 486.292 481.826C486.727 483.948 487.387 486.023 488.262 488.02L495.134 505.407C495.74 506.929 496.338 508.442 497.001 509.928C497.664 511.415 498.299 512.583 498.868 513.981C499.708 515.892 500.371 517.874 501.034 519.847L505.609 533.465L506.206 535.235C507.859 540.137 509.549 545.127 512.667 549.339C515.786 553.551 520.612 556.949 526.037 557.206C527.787 557.143 529.54 557.188 531.284 557.338C532.771 557.682 534.214 558.178 535.588 558.816C539.661 560.42 544.033 561.229 548.444 561.196C552.505 561.196 557.015 560.126 559.218 556.887C560.432 555.117 560.749 552.941 561.085 550.852C561.674 546.658 562.243 542.278 560.74 538.296C559.806 535.916 558.238 533.872 557.155 531.527C555.642 528.333 555.148 524.803 554.167 521.431C552.046 514.175 547.729 507.666 541.75 502.708C539.626 494.74 538.067 486.646 537.082 478.481C536.945 476.673 536.565 474.889 535.952 473.172C534.86 470.517 532.647 468.367 531.723 465.659C530.854 463.146 531.116 460.244 529.538 458.076C542.674 461.501 555.68 460.731 569.32 460.527C573.688 460.541 578.053 460.304 582.391 459.819C584.413 459.468 586.461 459.261 588.516 459.2C592.736 459.2 596.694 460.97 600.569 462.527C611.52 466.951 623.06 470.429 634.954 470.907C647.232 471.393 659.369 468.659 671.366 465.951C676.641 464.757 682.122 463.465 686.304 460.182C690.487 456.899 692.84 450.98 690.263 446.476C688.302 443.087 684.241 441.424 680.45 440.008C669.956 436.079 659.406 432.248 649.295 427.496C633.853 420.364 622.304 404.437 605.386 401.782Z" fill="#454B69"/>
<path id="Vector_69" d="M583.745 361.751C582.279 364.759 579.814 367.219 577.993 370.051C574.948 374.712 573.943 380.315 575.193 385.668C575.849 388.314 577.137 390.782 578.958 392.883C580.779 394.983 583.084 396.659 585.696 397.782C588.027 398.662 590.48 399.222 592.978 399.445C596.265 399.826 599.766 399.905 602.669 398.401C604.842 397.165 606.626 395.399 607.832 393.287C610.344 389.305 611.772 384.819 613.079 380.35C615.498 372.104 617.561 363.645 617.262 355.088C617.159 352.142 616.543 348.823 613.966 347.124C612.636 346.396 611.161 345.938 609.634 345.78L597.32 343.691C594.939 343.284 590.784 341.63 588.721 343.258C586.658 344.886 586.499 349.699 586.144 351.956C585.584 355.292 585.239 358.681 583.745 361.751Z" fill="#A1616A"/>
<path id="Vector_70" d="M733.434 327.526L730.213 353.116C729.546 357.68 729.163 362.277 729.065 366.884C729.065 369.45 729.149 372.299 727.356 374.219C726.479 375.093 725.37 375.726 724.144 376.051C720.233 377.201 715.966 376.175 712.231 374.591C710.047 373.706 707.815 372.423 706.826 370.361C706.251 368.932 706.012 367.401 706.125 365.875C706.125 350.612 707.647 334.693 716.059 321.686C716.777 320.41 717.788 319.303 719.019 318.447C721.353 317.032 724.406 317.43 727.048 318.2C728.673 318.669 733.061 319.191 734.097 320.562C735.133 321.934 733.658 325.765 733.434 327.526Z" fill="#A1616A"/>
<path id="Vector_71" d="M647.979 234.988C666.541 234.988 681.589 220.726 681.589 203.134C681.589 185.541 666.541 171.279 647.979 171.279C629.416 171.279 614.368 185.541 614.368 203.134C614.368 220.726 629.416 234.988 647.979 234.988Z" fill="#A1616A"/>
<path id="Vector_72" d="M638.988 250.606C638.867 253.084 638.155 255.504 636.906 257.684C654.066 255.207 671.183 252.446 688.256 249.402C682.591 246.643 678.308 241.871 676.342 236.13C675.414 233.051 674.906 229.872 674.83 226.671C674.559 221.594 674.662 216.505 675.138 211.442C669.163 212.035 663.505 214.159 657.81 215.982C652.084 217.816 646.259 219.36 640.36 220.609C637.513 221.211 634.646 221.724 631.771 222.202C628.41 222.768 626.795 222.76 629.129 225.556C635.393 233.024 639.865 240.616 638.988 250.606Z" fill="#A1616A"/>
<path id="Vector_73" d="M649.314 246.35C644.879 246.978 640.23 247.686 636.691 250.287C635.344 251.384 634.063 252.55 632.854 253.782C625.824 260.251 615.899 262.852 607.366 267.418C605.974 268.07 604.74 268.989 603.743 270.117C602.81 271.347 602.333 272.913 601.353 274.134C600.214 275.55 598.412 276.434 597.525 278.001C596.638 279.567 596.834 281.23 596.741 282.894C596.526 286.548 595.07 290.017 593.94 293.512C588.758 310.244 591.597 328.906 583.754 344.709C584.115 345.619 584.666 346.451 585.376 347.154C586.085 347.856 586.937 348.415 587.881 348.797C589.854 349.471 591.914 349.891 594.005 350.045L611.38 352.089C613.864 352.381 616.497 352.655 618.765 351.673C616.69 357.095 615.222 362.71 614.387 368.423C613.964 371.915 613.309 375.379 612.426 378.793C610.036 386.58 604.023 393.066 596.9 397.499C596.002 397.944 595.245 398.607 594.706 399.419C593.772 401.189 595.154 403.171 596.134 404.905C598.982 409.931 598.589 415.966 598.552 421.664C598.515 427.363 599.122 433.618 603.323 437.706C605.806 440.122 609.205 441.432 612.51 442.679L639.688 452.97C644.173 454.78 648.799 456.259 653.524 457.394C660.685 458.943 668.126 458.881 675.474 458.58C680.329 458.385 685.178 458.09 690.02 457.695C691.947 457.689 693.839 457.217 695.519 456.324C696.965 455.242 698.078 453.812 698.74 452.183C702.522 444.387 703.791 435.291 709.654 428.761C713.678 424.274 719.924 420.691 720.382 414.824C720.597 411.904 719.224 409.064 719.206 406.135C719.206 402.534 721.194 399.109 721.073 395.517C720.821 389.668 715.004 385.209 714.08 379.422C711.727 364.751 719.588 350.098 724.415 335.985C725.283 333.463 726.404 330.675 728.962 329.596C731.52 328.516 735.124 329.083 736.039 326.694C738.345 320.694 738.896 313.66 738.597 307.28C738.429 303.59 737.047 299.98 737.206 296.282C737.318 293.68 738.196 291.149 738.429 288.557C738.784 284.637 737.691 280.744 736.562 276.956C736.235 275.604 735.747 274.292 735.105 273.045C734.416 271.915 733.602 270.856 732.678 269.887L728.131 264.763C726.002 262.365 723.752 259.879 720.662 258.667C719.663 256.322 716.47 254.703 714.183 253.411C711.877 252.171 709.495 251.063 707.05 250.093L681.337 239.333C680.376 238.874 679.347 238.558 678.284 238.395C676.719 238.345 675.164 238.648 673.747 239.28C665.904 242.226 657.716 245.164 649.314 246.35Z" fill="#6C63FF"/>
<path id="Vector_74" d="M622.08 208.673C621.09 205.373 618.56 202.523 618.177 199.108C617.832 196.073 619.241 193.135 620.044 190.18C620.847 187.224 620.819 183.614 618.345 181.65C617.934 181.314 617.411 181.013 617.262 180.517C616.963 179.632 617.906 178.827 618.196 177.934C618.728 176.164 616.422 174.208 617.262 172.509C617.738 171.58 618.933 171.253 619.979 170.961C623.975 169.837 628.027 167.342 628.895 163.475C632.023 164.714 635.356 162.387 637.755 160.13C640.155 157.874 643.105 155.299 646.41 155.981L645.673 157.405C650.769 155.652 656.343 155.592 661.479 157.237H659.911C664.416 157.309 668.786 158.71 672.412 161.245C672.01 161.245 671.973 161.812 672.132 162.13C673.439 165.024 676.8 166.554 680.04 167.271C681.991 167.714 684.11 168.032 685.539 169.359C686.967 170.687 686.995 173.456 685.109 174.093C688.955 175.512 692.597 177.385 695.949 179.668C696.882 180.314 697.937 181.19 697.816 182.322C697.682 182.891 697.488 183.445 697.237 183.977C697.051 184.922 697.118 185.895 697.433 186.809L698.47 190.861C699.609 195.365 700.505 200.789 697.041 204.054C698.338 206.35 698.819 208.981 698.414 211.557C698.008 214.132 696.738 216.516 694.791 218.353C695.066 219.144 695.161 219.981 695.069 220.808C694.978 221.636 694.703 222.436 694.262 223.156C693.821 223.876 693.224 224.499 692.511 224.984C691.797 225.47 690.984 225.806 690.123 225.972C691.271 227.671 690.216 230.095 688.405 231.157C686.594 232.219 684.316 232.228 682.206 232.042C680.096 231.856 677.958 231.405 675.848 231.706C672.776 232.157 669.77 234.139 666.81 233.254C665.707 232.807 664.648 232.268 663.645 231.644C661.572 230.591 659.164 230.352 656.867 229.874C652.951 229.077 649.234 227.575 645.915 225.45C643.716 224.197 641.963 222.347 640.883 220.141C638.829 215.221 642.283 208.77 638.652 204.762C636.523 202.426 632.303 202.391 629.922 204.39C628.736 205.39 628.578 207.496 627.345 208.248C625.626 208.661 623.848 208.804 622.08 208.673Z" fill="#464353"/>
<path id="Vector_75" opacity="0.1" d="M576.406 462.393C575.079 461.398 573.934 460.202 573.017 458.854C572.097 457.499 571.732 455.872 571.99 454.279C571.626 456.294 571.765 458.361 572.396 460.316C573.026 462.27 574.131 464.058 575.622 465.535C577.965 467.809 582.363 470.038 585.789 469.26C585.304 466.658 578.582 464.145 576.406 462.393Z" fill="#6C63FF"/>
<path id="Vector_76" d="M761.098 320.067C761.098 320.067 741.193 309.13 714.92 322.721C688.648 336.312 684.269 416.294 684.269 416.294C684.269 416.294 695.015 497.779 653.58 479.649C653.58 479.649 577.956 457.395 570.384 462.297C570.384 462.297 563.214 462.297 577.545 465.314C591.877 468.331 647.241 484.958 647.241 484.958C647.241 484.958 665.139 490.886 672.72 484.958C680.301 479.029 701.784 485.719 704.575 444.963C706.423 419.279 709.745 393.711 714.528 368.37L721.913 347.621L761.098 320.067Z" fill="#4F4F4F"/>
<path id="Vector_77" d="M763.488 446.086C763.488 446.086 754.73 363.459 769.089 333.648C781.581 307.669 733.275 319.818 720.671 323.358C718.721 323.91 717.019 325.062 715.835 326.632C708.366 336.586 681.571 376.484 689.469 429.867C689.469 429.867 692.653 477.409 672.748 484.948L734.078 466.225C739.055 464.703 744.105 463.438 749.203 462.34C755.701 460.942 766.289 456.969 763.488 446.086Z" fill="white"/>
<path id="Vector_78" opacity="0.1" d="M924.269 606.756C974.512 606.756 1015.24 600.556 1015.24 592.908C1015.24 585.26 974.512 579.061 924.269 579.061C874.026 579.061 833.296 585.26 833.296 592.908C833.296 600.556 874.026 606.756 924.269 606.756Z" fill="#6C63FF"/>
<path id="Vector_79" d="M927.191 327.623H921.337V452.537H927.191V327.623Z" fill="#219653"/>
<g id="Vector_80">
<mask id="path-80-inside-2" fill="white">
<path d="M963.985 452.157L963.621 457.784L963.098 465.748L962.884 469.057L962.37 477.021L962.146 480.33L961.623 488.294L955.723 578.61C955.453 582.486 953.637 586.12 950.645 588.776C947.653 591.431 943.707 592.908 939.608 592.909H908.92C904.813 592.907 900.862 591.422 897.872 588.755C894.881 586.088 893.076 582.441 892.824 578.557L886.905 488.232L886.391 480.268L886.176 476.959L885.644 468.995L885.43 465.686L884.916 457.722L884.543 452.095C884.478 451.016 884.646 449.936 885.035 448.921C885.425 447.905 886.029 446.976 886.81 446.189C887.59 445.401 888.532 444.773 889.577 444.342C890.622 443.91 891.749 443.685 892.889 443.68H955.648C956.793 443.686 957.925 443.914 958.973 444.349C960.022 444.785 960.966 445.419 961.747 446.213C962.527 447.007 963.129 447.944 963.514 448.966C963.899 449.988 964.059 451.074 963.985 452.157Z"/>
</mask>
<path d="M963.985 452.157L963.621 457.784L963.098 465.748L962.884 469.057L962.37 477.021L962.146 480.33L961.623 488.294L955.723 578.61C955.453 582.486 953.637 586.12 950.645 588.776C947.653 591.431 943.707 592.908 939.608 592.909H908.92C904.813 592.907 900.862 591.422 897.872 588.755C894.881 586.088 893.076 582.441 892.824 578.557L886.905 488.232L886.391 480.268L886.176 476.959L885.644 468.995L885.43 465.686L884.916 457.722L884.543 452.095C884.478 451.016 884.646 449.936 885.035 448.921C885.425 447.905 886.029 446.976 886.81 446.189C887.59 445.401 888.532 444.773 889.577 444.342C890.622 443.91 891.749 443.685 892.889 443.68H955.648C956.793 443.686 957.925 443.914 958.973 444.349C960.022 444.785 960.966 445.419 961.747 446.213C962.527 447.007 963.129 447.944 963.514 448.966C963.899 449.988 964.059 451.074 963.985 452.157Z" fill="#4F4F4F" stroke="black" stroke-width="2" mask="url(#path-80-inside-2)"/>
</g>
<path id="Vector_81" d="M963.621 457.784L963.098 465.721H885.439L884.916 457.784H963.621Z" fill="#9D9CB5"/>
<path id="Vector_82" d="M962.884 469.039L962.37 476.985H886.176L885.654 469.039H962.884Z" fill="#9D9CB5"/>
<path id="Vector_83" d="M962.146 480.294L961.623 488.231H886.914L886.391 480.294H962.146Z" fill="#9D9CB5"/>
<path id="Vector_84" d="M875.972 374.44C910.068 397.818 924.269 434.38 924.269 434.38C924.269 434.38 883.189 433.044 849.083 409.666C814.978 386.288 800.796 349.735 800.796 349.735C800.796 349.735 841.885 351.071 875.972 374.44Z" fill="#27AE60"/>
<path id="Vector_85" d="M800.796 349.735C800.796 349.735 843.435 372.166 857.122 390.739C870.809 409.312 924.269 434.38 924.269 434.38" stroke="#535461" stroke-width="2" stroke-miterlimit="10"/>
<path id="Vector_86" d="M897.978 327.349C916.538 340.064 924.269 359.973 924.269 359.973C924.269 359.973 901.861 359.239 883.347 346.524C864.834 333.808 857.112 313.899 857.112 313.899C857.112 313.899 879.426 314.625 897.978 327.349Z" fill="#27AE60"/>
<path id="Vector_87" d="M857.112 313.899C857.112 313.899 880.323 326.11 887.764 336.215C895.205 346.32 924.315 359.973 924.315 359.973" stroke="#535461" stroke-width="2" stroke-miterlimit="10"/>
<path id="Vector_88" d="M951.232 358.956C929.917 381.157 925.408 410.171 925.408 410.171C925.408 410.171 955.461 403.18 976.758 380.971C998.054 358.761 1002.58 329.756 1002.58 329.756C1002.58 329.756 972.547 336.755 951.232 358.956Z" fill="#27AE60"/>
<path id="Vector_89" d="M1002.6 329.765C1002.6 329.765 974.834 352.523 967.776 368.202C960.718 383.882 925.408 410.171 925.408 410.171" stroke="#535461" stroke-width="2" stroke-miterlimit="10"/>
<path id="Vector_90" d="M520.015 305.511V307.528H456.892V305.891C458.623 305.276 460.261 304.449 461.766 303.431C464.446 301.612 466.63 299.214 468.137 296.434C469.644 293.655 470.43 290.576 470.43 287.451C470.431 285.818 470.214 284.192 469.785 282.611C469.022 279.765 467.596 277.117 465.612 274.862C463.628 272.607 461.137 270.801 458.32 269.577H519.585C516.769 270.801 514.278 272.607 512.294 274.862C510.31 277.117 508.884 279.765 508.12 282.611C507.695 284.193 507.481 285.819 507.486 287.451C507.483 290.575 508.268 293.654 509.773 296.434C511.278 299.213 513.461 301.612 516.14 303.431C517.352 304.251 518.65 304.947 520.015 305.511V305.511Z" fill="#DFE6F5"/>
<path id="Vector_91" opacity="0.1" d="M519.585 269.577C516.769 270.801 514.278 272.607 512.294 274.862C510.31 277.117 508.884 279.765 508.12 282.611H469.785C469.022 279.765 467.596 277.117 465.612 274.862C463.628 272.607 461.137 270.801 458.32 269.577H519.585Z" fill="#6C63FF"/>
<path id="Vector_92" d="M384.619 259.269V270.63C384.619 276.895 389.456 281.983 395.431 281.983H581.14C587.115 281.983 591.961 276.895 591.961 270.63V259.269H384.619Z" fill="#DFE6F5"/>
<path id="Vector_93" opacity="0.1" d="M520.015 305.511V307.528H456.892V305.892C458.623 305.276 460.261 304.449 461.766 303.432H516.14C517.352 304.251 518.65 304.948 520.015 305.511V305.511Z" fill="#6C63FF"/>
<path id="Vector_94" d="M537.707 304.06H439.2C437.452 304.06 436.035 305.401 436.035 307.055C436.035 308.709 437.452 310.05 439.2 310.05H537.707C539.455 310.05 540.872 308.709 540.872 307.055C540.872 305.401 539.455 304.06 537.707 304.06Z" fill="#DFE6F5"/>
<path id="Vector_95" d="M591.961 134.832C591.961 133.486 591.681 132.153 591.137 130.909C590.593 129.666 589.796 128.536 588.791 127.584C587.786 126.632 586.593 125.878 585.28 125.363C583.967 124.849 582.56 124.585 581.14 124.586H395.431C394.011 124.585 392.604 124.849 391.292 125.364C389.98 125.878 388.788 126.633 387.783 127.584C386.779 128.536 385.983 129.666 385.44 130.91C384.897 132.154 384.618 133.487 384.619 134.832V261.48H591.961V134.832Z" fill="#474157"/>
<path id="Vector_96" d="M586.303 139.408V248.244C586.304 248.907 586.167 249.564 585.9 250.177C585.634 250.79 585.242 251.347 584.748 251.816C584.253 252.285 583.666 252.658 583.02 252.912C582.374 253.166 581.681 253.296 580.981 253.296H395.599C394.899 253.296 394.207 253.166 393.56 252.912C392.914 252.658 392.327 252.285 391.833 251.816C391.338 251.347 390.947 250.79 390.68 250.177C390.413 249.564 390.276 248.907 390.277 248.244V139.408C390.273 138.522 390.518 137.652 390.987 136.886C391.454 136.119 392.127 135.482 392.936 135.039C393.746 134.596 394.664 134.364 395.599 134.364H580.981C582.393 134.364 583.746 134.896 584.744 135.842C585.742 136.787 586.303 138.07 586.303 139.408V139.408Z" fill="#4C4C78"/>
<path id="Vector_97" d="M488.29 131.833C489.667 131.833 490.783 130.776 490.783 129.471C490.783 128.166 489.667 127.108 488.29 127.108C486.913 127.108 485.797 128.166 485.797 129.471C485.797 130.776 486.913 131.833 488.29 131.833Z" fill="white"/>
<path id="Vector_98" d="M488.29 276.93C491.688 276.93 494.443 274.319 494.443 271.099C494.443 267.878 491.688 265.268 488.29 265.268C484.892 265.268 482.137 267.878 482.137 271.099C482.137 274.319 484.892 276.93 488.29 276.93Z" fill="white"/>
<path id="Vector_99" d="M586.303 139.408H390.296C390.296 138.07 390.857 136.787 391.855 135.842C392.853 134.896 394.206 134.364 395.618 134.364H580.981C582.393 134.364 583.746 134.896 584.744 135.842C585.742 136.787 586.303 138.07 586.303 139.408Z" fill="#C8CAD7"/>
<path id="Vector_100" d="M395.599 138.151C396.336 138.151 396.934 137.584 396.934 136.885C396.934 136.187 396.336 135.62 395.599 135.62C394.862 135.62 394.264 136.187 394.264 136.885C394.264 137.584 394.862 138.151 395.599 138.151Z" fill="#EDEDF4"/>
<path id="Vector_101" d="M399.595 138.151C400.332 138.151 400.93 137.584 400.93 136.885C400.93 136.187 400.332 135.62 399.595 135.62C398.858 135.62 398.26 136.187 398.26 136.885C398.26 137.584 398.858 138.151 399.595 138.151Z" fill="#EDEDF4"/>
<path id="Vector_102" d="M403.591 138.151C404.328 138.151 404.926 137.584 404.926 136.885C404.926 136.187 404.328 135.62 403.591 135.62C402.854 135.62 402.256 136.187 402.256 136.885C402.256 137.584 402.854 138.151 403.591 138.151Z" fill="#EDEDF4"/>
</g>
</g>
<defs>
<linearGradient id="paint0_linear" x1="360.803" y1="413.878" x2="362.969" y2="413.878" gradientUnits="userSpaceOnUse">
<stop stop-color="#808080" stop-opacity="0.25"/>
<stop offset="0.54" stop-color="#808080" stop-opacity="0.12"/>
<stop offset="1" stop-color="#808080" stop-opacity="0.1"/>
</linearGradient>
<clipPath id="clip0">
<rect width="1055.08" height="653.14" fill="white"/>
</clipPath>
</defs>
</svg>
