<svg width="37" height="101" viewBox="0 0 37 101" fill="none" xmlns="http://www.w3.org/2000/svg">
<g id="Component 1">
<g id="A" filter="url(#filter0_d)">
<path d="M31.76 39.12C31.8667 39.3333 31.92 39.56 31.92 39.8C31.92 40.2 31.76 40.5333 31.44 40.8C31.1467 41.0667 30.7867 41.2 30.36 41.2C29.6933 41.2 29.2267 40.88 28.96 40.24L26.12 33.76H11.04L8.16 40.24C7.89333 40.88 7.42667 41.2 6.76 41.2C6.33333 41.2 5.96 41.0667 5.64 40.8C5.32 40.5067 5.16 40.16 5.16 39.76C5.16 39.5467 5.21333 39.3333 5.32 39.12L16.76 13.68C16.92 13.3067 17.16 13.0267 17.48 12.84C17.8 12.6533 18.1467 12.56 18.52 12.56C18.92 12.56 19.28 12.6667 19.6 12.88C19.92 13.0667 20.16 13.3333 20.32 13.68L31.76 39.12ZM12.24 31.04H24.92L18.56 16.68L12.24 31.04Z" fill="white"/>
<path d="M31.76 39.12L30.848 39.5301L30.8564 39.5489L30.8656 39.5672L31.76 39.12ZM31.44 40.8L30.7998 40.0318L30.7833 40.0456L30.7673 40.0601L31.44 40.8ZM28.96 40.24L29.8831 39.8554L29.8796 39.847L29.8759 39.8386L28.96 40.24ZM26.12 33.76L27.0359 33.3586L26.7736 32.76H26.12V33.76ZM11.04 33.76V32.76H10.3901L10.1262 33.3539L11.04 33.76ZM8.16 40.24L7.24619 39.8339L7.24143 39.8446L7.23692 39.8554L8.16 40.24ZM5.64 40.8L4.96428 41.5372L4.98168 41.5531L4.99982 41.5682L5.64 40.8ZM5.32 39.12L6.21443 39.5672L6.22361 39.5489L6.23203 39.5301L5.32 39.12ZM16.76 13.68L17.672 14.0901L17.6757 14.0821L17.6791 14.0739L16.76 13.68ZM17.48 12.84L16.9761 11.9762L16.9761 11.9762L17.48 12.84ZM19.6 12.88L19.0453 13.712L19.0702 13.7287L19.0961 13.7438L19.6 12.88ZM20.32 13.68L21.2321 13.2699L21.228 13.2609L20.32 13.68ZM12.24 31.04L11.3247 30.6372L10.7073 32.04H12.24V31.04ZM24.92 31.04V32.04H26.4566L25.8343 30.635L24.92 31.04ZM18.56 16.68L19.4743 16.275L18.5571 14.2041L17.6447 16.2772L18.56 16.68ZM30.8656 39.5672C30.9024 39.6408 30.92 39.7142 30.92 39.8H32.92C32.92 39.4058 32.831 39.0259 32.6544 38.6728L30.8656 39.5672ZM30.92 39.8C30.92 39.8894 30.9027 39.9461 30.7998 40.0318L32.0802 41.5682C32.6173 41.1206 32.92 40.5106 32.92 39.8H30.92ZM30.7673 40.0601C30.6728 40.146 30.5586 40.2 30.36 40.2V42.2C31.0148 42.2 31.6205 41.9873 32.1127 41.5399L30.7673 40.0601ZM30.36 40.2C30.1917 40.2 30.1144 40.1619 30.0755 40.1353C30.0339 40.1067 29.959 40.0376 29.8831 39.8554L28.0369 40.6246C28.2277 41.0824 28.5194 41.4933 28.9445 41.7847C29.3723 42.0781 29.8616 42.2 30.36 42.2V40.2ZM29.8759 39.8386L27.0359 33.3586L25.2041 34.1614L28.0441 40.6414L29.8759 39.8386ZM26.12 32.76H11.04V34.76H26.12V32.76ZM10.1262 33.3539L7.24619 39.8339L9.07381 40.6461L11.9538 34.1661L10.1262 33.3539ZM7.23692 39.8554C7.161 40.0376 7.08608 40.1067 7.04447 40.1353C7.00562 40.1619 6.92828 40.2 6.76 40.2V42.2C7.25839 42.2 7.74771 42.0781 8.17553 41.7847C8.60059 41.4933 8.89233 41.0824 9.08308 40.6246L7.23692 39.8554ZM6.76 40.2C6.56107 40.2 6.41576 40.1448 6.28018 40.0318L4.99982 41.5682C5.50424 41.9886 6.1056 42.2 6.76 42.2V40.2ZM6.31572 40.0628C6.18265 39.9409 6.16 39.854 6.16 39.76H4.16C4.16 40.466 4.45735 41.0725 4.96428 41.5372L6.31572 40.0628ZM6.16 39.76C6.16 39.7194 6.1689 39.6583 6.21443 39.5672L4.42557 38.6728C4.25776 39.0084 4.16 39.3739 4.16 39.76H6.16ZM6.23203 39.5301L17.672 14.0901L15.848 13.2699L4.40797 38.7099L6.23203 39.5301ZM17.6791 14.0739C17.7633 13.8776 17.8671 13.7719 17.9839 13.7038L16.9761 11.9762C16.4529 12.2814 16.0767 12.7357 15.8409 13.2861L17.6791 14.0739ZM17.9839 13.7038C18.1497 13.607 18.3223 13.56 18.52 13.56V11.56C17.9711 11.56 17.4503 11.6996 16.9761 11.9762L17.9839 13.7038ZM18.52 13.56C18.7309 13.56 18.8964 13.6128 19.0453 13.712L20.1547 12.0479C19.6636 11.7206 19.1091 11.56 18.52 11.56V13.56ZM19.0961 13.7438C19.2333 13.8238 19.3352 13.9325 19.412 14.0991L21.228 13.2609C20.9848 12.7342 20.6067 12.3095 20.1039 12.0162L19.0961 13.7438ZM19.408 14.0901L30.848 39.5301L32.672 38.7099L21.232 13.2699L19.408 14.0901ZM12.24 32.04H24.92V30.04H12.24V32.04ZM25.8343 30.635L19.4743 16.275L17.6457 17.085L24.0057 31.445L25.8343 30.635ZM17.6447 16.2772L11.3247 30.6372L13.1553 31.4428L19.4753 17.0828L17.6447 16.2772Z" fill="#18A0FB"/>
</g>
<g id="X" filter="url(#filter1_d)">
<path d="M27.3 47.23C27.5 47.45 27.6 47.7 27.6 47.98C27.6 48.3 27.48 48.57 27.24 48.79C27 49.01 26.72 49.12 26.4 49.12C26.08 49.12 25.79 48.98 25.53 48.7L18.69 39.97L11.82 48.7C11.6 48.98 11.31 49.12 10.95 49.12C10.65 49.12 10.38 49.01 10.14 48.79C9.9 48.55 9.78 48.28 9.78 47.98C9.78 47.68 9.87 47.43 10.05 47.23L17.25 38.2L10.44 29.62C10.24 29.4 10.14 29.14 10.14 28.84C10.14 28.54 10.25 28.28 10.47 28.06C10.71 27.84 10.98 27.73 11.28 27.73C11.62 27.73 11.91 27.88 12.15 28.18L18.69 36.46L25.2 28.18C25.44 27.88 25.73 27.73 26.07 27.73C26.37 27.73 26.64 27.85 26.88 28.09C27.12 28.31 27.24 28.58 27.24 28.9C27.24 29.18 27.15 29.42 26.97 29.62L20.13 38.2L27.3 47.23Z" fill="white"/>
<path d="M27.3 47.23L26.5169 47.8518L26.5376 47.878L26.5601 47.9027L27.3 47.23ZM27.24 48.79L27.9157 49.5272L27.9157 49.5272L27.24 48.79ZM25.53 48.7L24.7428 49.3167L24.7687 49.3497L24.7972 49.3805L25.53 48.7ZM18.69 39.97L19.4772 39.3533L18.6917 38.3508L17.9042 39.3516L18.69 39.97ZM11.82 48.7L11.0342 48.0816L11.0337 48.0822L11.82 48.7ZM10.14 48.79L9.43289 49.4971L9.44826 49.5125L9.46428 49.5272L10.14 48.79ZM10.05 47.23L10.7933 47.899L10.8133 47.8768L10.8319 47.8534L10.05 47.23ZM17.25 38.2L18.0319 38.8234L18.5278 38.2014L18.0333 37.5783L17.25 38.2ZM10.44 29.62L11.2233 28.9983L11.2025 28.9721L11.1799 28.9473L10.44 29.62ZM10.47 28.06L9.79427 27.3228L9.77826 27.3375L9.76289 27.3529L10.47 28.06ZM12.15 28.18L12.9348 27.5602L12.9309 27.5553L12.15 28.18ZM18.69 36.46L17.9053 37.0798L18.6918 38.0756L19.4761 37.0781L18.69 36.46ZM25.2 28.18L24.4191 27.5553L24.4139 27.5619L25.2 28.18ZM26.88 28.09L26.1729 28.7971L26.1883 28.8125L26.2043 28.8272L26.88 28.09ZM26.97 29.62L26.2267 28.951L26.2067 28.9733L26.1881 28.9966L26.97 29.62ZM20.13 38.2L19.3481 37.5766L18.8521 38.1988L19.3469 38.8218L20.13 38.2ZM26.5601 47.9027C26.5881 47.9335 26.5953 47.9507 26.5965 47.9539C26.5974 47.9561 26.6 47.9621 26.6 47.98H28.6C28.6 47.4349 28.396 46.9489 28.0399 46.5573L26.5601 47.9027ZM26.6 47.98C26.6 47.9972 26.5984 48.0071 26.5976 48.0113C26.5971 48.0135 26.5967 48.0148 26.5966 48.0154C26.5964 48.0159 26.5963 48.0162 26.5962 48.0164C26.5961 48.0165 26.5959 48.0171 26.5953 48.0181C26.5947 48.0191 26.5936 48.0209 26.5916 48.0236C26.5878 48.0288 26.5796 48.0388 26.5643 48.0528L27.9157 49.5272C28.3583 49.1215 28.6 48.5858 28.6 47.98H26.6ZM26.5643 48.0528C26.5051 48.107 26.465 48.12 26.4 48.12V50.12C26.975 50.12 27.4949 49.913 27.9157 49.5272L26.5643 48.0528ZM26.4 48.12C26.3915 48.12 26.3876 48.1194 26.3772 48.1144C26.3633 48.1077 26.3235 48.0849 26.2628 48.0195L24.7972 49.3805C25.2066 49.8213 25.7484 50.12 26.4 50.12V48.12ZM26.3172 48.0833L19.4772 39.3533L17.9028 40.5867L24.7428 49.3167L26.3172 48.0833ZM17.9042 39.3516L11.0342 48.0816L12.6058 49.3184L19.4759 40.5884L17.9042 39.3516ZM11.0337 48.0822C11.0198 48.0999 11.0102 48.1085 11.0062 48.1118C11.0024 48.1149 11.0015 48.115 11.0028 48.1144C11.0039 48.1139 11.0026 48.1148 10.9963 48.1162C10.9897 48.1176 10.975 48.12 10.95 48.12V50.12C11.6129 50.12 12.1943 49.8422 12.6063 49.3178L11.0337 48.0822ZM10.95 48.12C10.9225 48.12 10.8884 48.1195 10.8157 48.0528L9.46428 49.5272C9.87159 49.9005 10.3775 50.12 10.95 50.12V48.12ZM10.8471 48.0829C10.8011 48.0369 10.7871 48.0088 10.7838 48.0014C10.7815 47.9962 10.78 47.9923 10.78 47.98H8.78C8.78 48.5809 9.0322 49.0964 9.43289 49.4971L10.8471 48.0829ZM10.78 47.98C10.78 47.9307 10.7872 47.9095 10.7884 47.9062C10.7888 47.905 10.7891 47.9044 10.7892 47.9042C10.7893 47.904 10.7893 47.9039 10.7894 47.9039C10.7894 47.9038 10.7896 47.9035 10.7901 47.9028C10.7906 47.9021 10.7916 47.9008 10.7933 47.899L9.30671 46.561C8.94206 46.9662 8.78 47.4635 8.78 47.98H10.78ZM10.8319 47.8534L18.0319 38.8234L16.4681 37.5766L9.26812 46.6066L10.8319 47.8534ZM18.0333 37.5783L11.2233 28.9983L9.65673 30.2417L16.4667 38.8217L18.0333 37.5783ZM11.1799 28.9473C11.1489 28.9132 11.14 28.8937 11.14 28.84H9.14C9.14 29.3863 9.33106 29.8868 9.70006 30.2927L11.1799 28.9473ZM11.14 28.84C11.14 28.8264 11.1412 28.8186 11.1419 28.8152C11.1425 28.812 11.1431 28.8106 11.1435 28.8096C11.1439 28.8087 11.1454 28.8052 11.1497 28.799C11.1541 28.7926 11.1624 28.7818 11.1771 28.7671L9.76289 27.3529C9.36312 27.7527 9.14 28.264 9.14 28.84H11.14ZM11.1457 28.7972C11.2184 28.7305 11.2525 28.73 11.28 28.73V26.73C10.7075 26.73 10.2016 26.9495 9.79427 27.3228L11.1457 28.7972ZM11.28 28.73C11.2909 28.73 11.2948 28.7311 11.294 28.7309C11.293 28.7307 11.2922 28.7303 11.2931 28.7307C11.2936 28.731 11.3214 28.745 11.3691 28.8047L12.9309 27.5553C12.529 27.053 11.9658 26.73 11.28 26.73V28.73ZM11.3653 28.7998L17.9053 37.0798L19.4747 35.8402L12.9347 27.5602L11.3653 28.7998ZM19.4761 37.0781L25.9861 28.7981L24.4139 27.5619L17.9039 35.8419L19.4761 37.0781ZM25.9809 28.8047C26.0286 28.745 26.0564 28.731 26.0569 28.7307C26.0578 28.7303 26.057 28.7307 26.056 28.7309C26.0552 28.7311 26.0591 28.73 26.07 28.73V26.73C25.3842 26.73 24.821 27.053 24.4191 27.5553L25.9809 28.8047ZM26.07 28.73C26.0823 28.73 26.0862 28.7315 26.0914 28.7338C26.0988 28.7371 26.1269 28.7511 26.1729 28.7971L27.5871 27.3829C27.1864 26.9822 26.6709 26.73 26.07 26.73V28.73ZM26.2043 28.8272C26.2196 28.8412 26.2278 28.8512 26.2316 28.8565C26.2336 28.8591 26.2347 28.8609 26.2353 28.8619C26.2359 28.8629 26.2361 28.8635 26.2362 28.8636C26.2363 28.8638 26.2364 28.8641 26.2366 28.8646C26.2367 28.8652 26.2371 28.8665 26.2376 28.8687C26.2384 28.8729 26.24 28.8828 26.24 28.9H28.24C28.24 28.2942 27.9983 27.7585 27.5557 27.3528L26.2043 28.8272ZM26.24 28.9C26.24 28.9163 26.2387 28.9266 26.2378 28.932C26.2373 28.9347 26.2369 28.9365 26.2366 28.9375C26.2363 28.9384 26.2362 28.9389 26.2362 28.9389C26.2362 28.9389 26.2362 28.9388 26.2362 28.9387C26.2363 28.9387 26.2362 28.9389 26.2358 28.9395C26.2352 28.9405 26.2327 28.9444 26.2267 28.951L27.7133 30.289C28.0658 29.8973 28.24 29.416 28.24 28.9H26.24ZM26.1881 28.9966L19.3481 37.5766L20.9119 38.8234L27.7519 30.2434L26.1881 28.9966ZM19.3469 38.8218L26.5169 47.8518L28.0831 46.6082L20.9131 37.5782L19.3469 38.8218Z" fill="#18A0FB"/>
</g>
</g>
<defs>
<filter id="filter0_d" x="0.160004" y="11.56" width="36.76" height="38.64" filterUnits="userSpaceOnUse" color-interpolation-filters="sRGB">
<feFlood flood-opacity="0" result="BackgroundImageFix"/>
<feColorMatrix in="SourceAlpha" type="matrix" values="0 0 0 0 0 0 0 0 0 0 0 0 0 0 0 0 0 0 127 0"/>
<feOffset dy="4"/>
<feGaussianBlur stdDeviation="2"/>
<feColorMatrix type="matrix" values="0 0 0 0 0 0 0 0 0 0 0 0 0 0 0 0 0 0 0.25 0"/>
<feBlend mode="normal" in2="BackgroundImageFix" result="effect1_dropShadow"/>
<feBlend mode="normal" in="SourceGraphic" in2="effect1_dropShadow" result="shape"/>
</filter>
<filter id="filter1_d" x="4.78" y="26.73" width="27.82" height="31.39" filterUnits="userSpaceOnUse" color-interpolation-filters="sRGB">
<feFlood flood-opacity="0" result="BackgroundImageFix"/>
<feColorMatrix in="SourceAlpha" type="matrix" values="0 0 0 0 0 0 0 0 0 0 0 0 0 0 0 0 0 0 127 0"/>
<feOffset dy="4"/>
<feGaussianBlur stdDeviation="2"/>
<feColorMatrix type="matrix" values="0 0 0 0 0 0 0 0 0 0 0 0 0 0 0 0 0 0 0.25 0"/>
<feBlend mode="normal" in2="BackgroundImageFix" result="effect1_dropShadow"/>
<feBlend mode="normal" in="SourceGraphic" in2="effect1_dropShadow" result="shape"/>
</filter>
</defs>
</svg>
