<svg width="3408" height="164" viewBox="0 0 3408 164" fill="none" xmlns="http://www.w3.org/2000/svg">
<path id="Vector" d="M0 0.200005L113.6 15.7756C227.2 31.6438 454.4 62.3562 681.6 58.7C908.8 55.0438 1136 15.5563 1363.2 23.6C1590.4 31.6438 1817.6 85.7562 2044.8 97.6756C2272 109.156 2499.2 78.4437 2726.4 78.2244C2953.6 78.4437 3180.8 109.156 3294.4 125.024L3408 140.6V164H3294.4C3180.8 164 2953.6 164 2726.4 164C2499.2 164 2272 164 2044.8 164C1817.6 164 1590.4 164 1363.2 164C1136 164 908.8 164 681.6 164C454.4 164 227.2 164 113.6 164H0V0.200005Z" fill="#6BC4FF"/>
</svg>
